<?xml version="1.0" encoding="utf-8" standalone="no"?>
<!DOCTYPE svg PUBLIC "-//W3C//DTD SVG 1.1//EN"
  "http://www.w3.org/Graphics/SVG/1.1/DTD/svg11.dtd">
<!-- Created with matplotlib (https://matplotlib.org/) -->
<svg height="338.4pt" version="1.1" viewBox="0 0 465.12 338.4" width="465.12pt" xmlns="http://www.w3.org/2000/svg" xmlns:xlink="http://www.w3.org/1999/xlink">
 <defs>
  <style type="text/css">
*{stroke-linecap:butt;stroke-linejoin:round;}
  </style>
 </defs>
 <g id="figure_1">
  <g id="patch_1">
   <path d="M 0 338.4 
L 465.12 338.4 
L 465.12 0 
L 0 0 
z
" style="fill:#ffffff;"/>
  </g>
  <g id="axes_1">
   <g id="patch_2">
    <path d="M 58.14 301.176 
L 418.608 301.176 
L 418.608 40.608 
L 58.14 40.608 
z
" style="fill:#ffffff;"/>
   </g>
   <g id="matplotlib.axis_1">
    <g id="xtick_1">
     <g id="line2d_1">
      <defs>
       <path d="M 0 0 
L 0 3.5 
" id="mae9e25e135" style="stroke:#000000;stroke-width:0.8;"/>
      </defs>
      <g>
       <use style="stroke:#000000;stroke-width:0.8;" x="74.524909" xlink:href="#mae9e25e135" y="301.176"/>
      </g>
     </g>
     <g id="text_1">
      <!-- 0 -->
      <defs>
       <path d="M 31.78125 66.40625 
Q 24.171875 66.40625 20.328125 58.90625 
Q 16.5 51.421875 16.5 36.375 
Q 16.5 21.390625 20.328125 13.890625 
Q 24.171875 6.390625 31.78125 6.390625 
Q 39.453125 6.390625 43.28125 13.890625 
Q 47.125 21.390625 47.125 36.375 
Q 47.125 51.421875 43.28125 58.90625 
Q 39.453125 66.40625 31.78125 66.40625 
z
M 31.78125 74.21875 
Q 44.046875 74.21875 50.515625 64.515625 
Q 56.984375 54.828125 56.984375 36.375 
Q 56.984375 17.96875 50.515625 8.265625 
Q 44.046875 -1.421875 31.78125 -1.421875 
Q 19.53125 -1.421875 13.0625 8.265625 
Q 6.59375 17.96875 6.59375 36.375 
Q 6.59375 54.828125 13.0625 64.515625 
Q 19.53125 74.21875 31.78125 74.21875 
z
" id="DejaVuSans-48"/>
      </defs>
      <g transform="translate(71.343659 315.774438)scale(0.1 -0.1)">
       <use xlink:href="#DejaVuSans-48"/>
      </g>
     </g>
    </g>
    <g id="xtick_2">
     <g id="line2d_2">
      <g>
       <use style="stroke:#000000;stroke-width:0.8;" x="140.130151" xlink:href="#mae9e25e135" y="301.176"/>
      </g>
     </g>
     <g id="text_2">
      <!-- 200 -->
      <defs>
       <path d="M 19.1875 8.296875 
L 53.609375 8.296875 
L 53.609375 0 
L 7.328125 0 
L 7.328125 8.296875 
Q 12.9375 14.109375 22.625 23.890625 
Q 32.328125 33.6875 34.8125 36.53125 
Q 39.546875 41.84375 41.421875 45.53125 
Q 43.3125 49.21875 43.3125 52.78125 
Q 43.3125 58.59375 39.234375 62.25 
Q 35.15625 65.921875 28.609375 65.921875 
Q 23.96875 65.921875 18.8125 64.3125 
Q 13.671875 62.703125 7.8125 59.421875 
L 7.8125 69.390625 
Q 13.765625 71.78125 18.9375 73 
Q 24.125 74.21875 28.421875 74.21875 
Q 39.75 74.21875 46.484375 68.546875 
Q 53.21875 62.890625 53.21875 53.421875 
Q 53.21875 48.921875 51.53125 44.890625 
Q 49.859375 40.875 45.40625 35.40625 
Q 44.1875 33.984375 37.640625 27.21875 
Q 31.109375 20.453125 19.1875 8.296875 
z
" id="DejaVuSans-50"/>
      </defs>
      <g transform="translate(130.586401 315.774438)scale(0.1 -0.1)">
       <use xlink:href="#DejaVuSans-50"/>
       <use x="63.623047" xlink:href="#DejaVuSans-48"/>
       <use x="127.246094" xlink:href="#DejaVuSans-48"/>
      </g>
     </g>
    </g>
    <g id="xtick_3">
     <g id="line2d_3">
      <g>
       <use style="stroke:#000000;stroke-width:0.8;" x="205.735392" xlink:href="#mae9e25e135" y="301.176"/>
      </g>
     </g>
     <g id="text_3">
      <!-- 400 -->
      <defs>
       <path d="M 37.796875 64.3125 
L 12.890625 25.390625 
L 37.796875 25.390625 
z
M 35.203125 72.90625 
L 47.609375 72.90625 
L 47.609375 25.390625 
L 58.015625 25.390625 
L 58.015625 17.1875 
L 47.609375 17.1875 
L 47.609375 0 
L 37.796875 0 
L 37.796875 17.1875 
L 4.890625 17.1875 
L 4.890625 26.703125 
z
" id="DejaVuSans-52"/>
      </defs>
      <g transform="translate(196.191642 315.774438)scale(0.1 -0.1)">
       <use xlink:href="#DejaVuSans-52"/>
       <use x="63.623047" xlink:href="#DejaVuSans-48"/>
       <use x="127.246094" xlink:href="#DejaVuSans-48"/>
      </g>
     </g>
    </g>
    <g id="xtick_4">
     <g id="line2d_4">
      <g>
       <use style="stroke:#000000;stroke-width:0.8;" x="271.340634" xlink:href="#mae9e25e135" y="301.176"/>
      </g>
     </g>
     <g id="text_4">
      <!-- 600 -->
      <defs>
       <path d="M 33.015625 40.375 
Q 26.375 40.375 22.484375 35.828125 
Q 18.609375 31.296875 18.609375 23.390625 
Q 18.609375 15.53125 22.484375 10.953125 
Q 26.375 6.390625 33.015625 6.390625 
Q 39.65625 6.390625 43.53125 10.953125 
Q 47.40625 15.53125 47.40625 23.390625 
Q 47.40625 31.296875 43.53125 35.828125 
Q 39.65625 40.375 33.015625 40.375 
z
M 52.59375 71.296875 
L 52.59375 62.3125 
Q 48.875 64.0625 45.09375 64.984375 
Q 41.3125 65.921875 37.59375 65.921875 
Q 27.828125 65.921875 22.671875 59.328125 
Q 17.53125 52.734375 16.796875 39.40625 
Q 19.671875 43.65625 24.015625 45.921875 
Q 28.375 48.1875 33.59375 48.1875 
Q 44.578125 48.1875 50.953125 41.515625 
Q 57.328125 34.859375 57.328125 23.390625 
Q 57.328125 12.15625 50.6875 5.359375 
Q 44.046875 -1.421875 33.015625 -1.421875 
Q 20.359375 -1.421875 13.671875 8.265625 
Q 6.984375 17.96875 6.984375 36.375 
Q 6.984375 53.65625 15.1875 63.9375 
Q 23.390625 74.21875 37.203125 74.21875 
Q 40.921875 74.21875 44.703125 73.484375 
Q 48.484375 72.75 52.59375 71.296875 
z
" id="DejaVuSans-54"/>
      </defs>
      <g transform="translate(261.796884 315.774438)scale(0.1 -0.1)">
       <use xlink:href="#DejaVuSans-54"/>
       <use x="63.623047" xlink:href="#DejaVuSans-48"/>
       <use x="127.246094" xlink:href="#DejaVuSans-48"/>
      </g>
     </g>
    </g>
    <g id="xtick_5">
     <g id="line2d_5">
      <g>
       <use style="stroke:#000000;stroke-width:0.8;" x="336.945876" xlink:href="#mae9e25e135" y="301.176"/>
      </g>
     </g>
     <g id="text_5">
      <!-- 800 -->
      <defs>
       <path d="M 31.78125 34.625 
Q 24.75 34.625 20.71875 30.859375 
Q 16.703125 27.09375 16.703125 20.515625 
Q 16.703125 13.921875 20.71875 10.15625 
Q 24.75 6.390625 31.78125 6.390625 
Q 38.8125 6.390625 42.859375 10.171875 
Q 46.921875 13.96875 46.921875 20.515625 
Q 46.921875 27.09375 42.890625 30.859375 
Q 38.875 34.625 31.78125 34.625 
z
M 21.921875 38.8125 
Q 15.578125 40.375 12.03125 44.71875 
Q 8.5 49.078125 8.5 55.328125 
Q 8.5 64.0625 14.71875 69.140625 
Q 20.953125 74.21875 31.78125 74.21875 
Q 42.671875 74.21875 48.875 69.140625 
Q 55.078125 64.0625 55.078125 55.328125 
Q 55.078125 49.078125 51.53125 44.71875 
Q 48 40.375 41.703125 38.8125 
Q 48.828125 37.15625 52.796875 32.3125 
Q 56.78125 27.484375 56.78125 20.515625 
Q 56.78125 9.90625 50.3125 4.234375 
Q 43.84375 -1.421875 31.78125 -1.421875 
Q 19.734375 -1.421875 13.25 4.234375 
Q 6.78125 9.90625 6.78125 20.515625 
Q 6.78125 27.484375 10.78125 32.3125 
Q 14.796875 37.15625 21.921875 38.8125 
z
M 18.3125 54.390625 
Q 18.3125 48.734375 21.84375 45.5625 
Q 25.390625 42.390625 31.78125 42.390625 
Q 38.140625 42.390625 41.71875 45.5625 
Q 45.3125 48.734375 45.3125 54.390625 
Q 45.3125 60.0625 41.71875 63.234375 
Q 38.140625 66.40625 31.78125 66.40625 
Q 25.390625 66.40625 21.84375 63.234375 
Q 18.3125 60.0625 18.3125 54.390625 
z
" id="DejaVuSans-56"/>
      </defs>
      <g transform="translate(327.402126 315.774438)scale(0.1 -0.1)">
       <use xlink:href="#DejaVuSans-56"/>
       <use x="63.623047" xlink:href="#DejaVuSans-48"/>
       <use x="127.246094" xlink:href="#DejaVuSans-48"/>
      </g>
     </g>
    </g>
    <g id="xtick_6">
     <g id="line2d_6">
      <g>
       <use style="stroke:#000000;stroke-width:0.8;" x="402.551117" xlink:href="#mae9e25e135" y="301.176"/>
      </g>
     </g>
     <g id="text_6">
      <!-- 1000 -->
      <defs>
       <path d="M 12.40625 8.296875 
L 28.515625 8.296875 
L 28.515625 63.921875 
L 10.984375 60.40625 
L 10.984375 69.390625 
L 28.421875 72.90625 
L 38.28125 72.90625 
L 38.28125 8.296875 
L 54.390625 8.296875 
L 54.390625 0 
L 12.40625 0 
z
" id="DejaVuSans-49"/>
      </defs>
      <g transform="translate(389.826117 315.774438)scale(0.1 -0.1)">
       <use xlink:href="#DejaVuSans-49"/>
       <use x="63.623047" xlink:href="#DejaVuSans-48"/>
       <use x="127.246094" xlink:href="#DejaVuSans-48"/>
       <use x="190.869141" xlink:href="#DejaVuSans-48"/>
      </g>
     </g>
    </g>
   </g>
   <g id="matplotlib.axis_2">
    <g id="ytick_1">
     <g id="line2d_7">
      <defs>
       <path d="M 0 0 
L -3.5 0 
" id="m40333f8de7" style="stroke:#000000;stroke-width:0.8;"/>
      </defs>
      <g>
       <use style="stroke:#000000;stroke-width:0.8;" x="58.14" xlink:href="#m40333f8de7" y="262.98063"/>
      </g>
     </g>
     <g id="text_7">
      <!-- −60 -->
      <defs>
       <path d="M 10.59375 35.5 
L 73.1875 35.5 
L 73.1875 27.203125 
L 10.59375 27.203125 
z
" id="DejaVuSans-8722"/>
      </defs>
      <g transform="translate(30.035312 266.779849)scale(0.1 -0.1)">
       <use xlink:href="#DejaVuSans-8722"/>
       <use x="83.789062" xlink:href="#DejaVuSans-54"/>
       <use x="147.412109" xlink:href="#DejaVuSans-48"/>
      </g>
     </g>
    </g>
    <g id="ytick_2">
     <g id="line2d_8">
      <g>
       <use style="stroke:#000000;stroke-width:0.8;" x="58.14" xlink:href="#m40333f8de7" y="208.130213"/>
      </g>
     </g>
     <g id="text_8">
      <!-- −40 -->
      <g transform="translate(30.035312 211.929431)scale(0.1 -0.1)">
       <use xlink:href="#DejaVuSans-8722"/>
       <use x="83.789062" xlink:href="#DejaVuSans-52"/>
       <use x="147.412109" xlink:href="#DejaVuSans-48"/>
      </g>
     </g>
    </g>
    <g id="ytick_3">
     <g id="line2d_9">
      <g>
       <use style="stroke:#000000;stroke-width:0.8;" x="58.14" xlink:href="#m40333f8de7" y="153.279795"/>
      </g>
     </g>
     <g id="text_9">
      <!-- −20 -->
      <g transform="translate(30.035312 157.079014)scale(0.1 -0.1)">
       <use xlink:href="#DejaVuSans-8722"/>
       <use x="83.789062" xlink:href="#DejaVuSans-50"/>
       <use x="147.412109" xlink:href="#DejaVuSans-48"/>
      </g>
     </g>
    </g>
    <g id="ytick_4">
     <g id="line2d_10">
      <g>
       <use style="stroke:#000000;stroke-width:0.8;" x="58.14" xlink:href="#m40333f8de7" y="98.429377"/>
      </g>
     </g>
     <g id="text_10">
      <!-- 0 -->
      <g transform="translate(44.7775 102.228596)scale(0.1 -0.1)">
       <use xlink:href="#DejaVuSans-48"/>
      </g>
     </g>
    </g>
    <g id="ytick_5">
     <g id="line2d_11">
      <g>
       <use style="stroke:#000000;stroke-width:0.8;" x="58.14" xlink:href="#m40333f8de7" y="43.57896"/>
      </g>
     </g>
     <g id="text_11">
      <!-- 20 -->
      <g transform="translate(38.415 47.378179)scale(0.1 -0.1)">
       <use xlink:href="#DejaVuSans-50"/>
       <use x="63.623047" xlink:href="#DejaVuSans-48"/>
      </g>
     </g>
    </g>
   </g>
   <g id="line2d_12">
    <path clip-path="url(#p4d055c6b72)" d="M 74.524909 100.674842 
L 74.852935 101.840906 
L 75.180962 103.570634 
L 75.837014 97.643619 
L 76.16504 102.803283 
L 76.493066 103.27786 
L 76.821093 102.609608 
L 77.149119 99.19203 
L 77.477145 99.48849 
L 77.805171 98.480174 
L 78.133197 101.523684 
L 78.461224 102.645771 
L 78.78925 104.761475 
L 79.117276 104.958372 
L 79.445302 103.959711 
L 79.773328 107.520567 
L 80.101355 107.39998 
L 80.429381 108.039728 
L 80.757407 106.954119 
L 81.085433 107.311394 
L 81.413459 103.768963 
L 81.741486 101.679504 
L 82.069512 102.937143 
L 82.397538 103.586498 
L 82.725564 106.989624 
L 83.05359 109.091189 
L 83.381617 106.799141 
L 83.709643 107.101015 
L 84.037669 110.795758 
L 84.365695 108.843476 
L 84.693722 105.995068 
L 85.021748 105.86875 
L 85.6778 105.293247 
L 86.005826 105.950097 
L 86.333853 102.657534 
L 86.661879 104.290983 
L 86.989905 107.712354 
L 87.317931 108.69339 
L 87.645957 107.124622 
L 87.973984 112.11147 
L 88.30201 111.22088 
L 89.286088 101.942017 
L 89.614115 100.900626 
L 89.942141 104.051043 
L 90.270167 99.516509 
L 90.598193 97.59695 
L 91.254246 91.171605 
L 91.582272 95.815047 
L 92.238324 99.794891 
L 92.566351 95.723551 
L 93.222403 107.058522 
L 93.550429 104.405415 
L 93.878455 105.376473 
L 94.206482 101.792171 
L 94.534508 102.961072 
L 94.862534 97.067384 
L 95.518586 101.18407 
L 95.846613 108.169774 
L 96.174639 103.094234 
L 96.502665 103.339425 
L 96.830691 105.129537 
L 97.158717 104.368503 
L 97.486744 102.784909 
L 97.81477 98.970086 
L 98.470822 88.916847 
L 98.798848 88.403611 
L 99.126875 86.541903 
L 99.454901 82.36699 
L 100.110953 72.25343 
L 100.43898 75.602983 
L 101.095032 84.297605 
L 101.423058 86.33273 
L 101.751084 84.874322 
L 102.079111 87.578187 
L 102.407137 91.290929 
L 102.735163 87.078948 
L 103.063189 89.73879 
L 103.391215 84.260691 
L 103.719242 85.343483 
L 104.047268 89.760677 
L 104.375294 86.239814 
L 104.70332 83.91701 
L 105.031346 83.936395 
L 105.359373 78.020349 
L 105.687399 78.60453 
L 106.015425 79.550866 
L 106.343451 83.029602 
L 106.999504 86.452006 
L 107.32753 81.948293 
L 107.983582 89.98477 
L 108.311609 88.038135 
L 108.639635 88.119332 
L 108.967661 90.087484 
L 109.295687 89.295282 
L 109.623713 92.070954 
L 110.279766 88.647926 
L 110.607792 88.002022 
L 111.263844 87.384353 
L 111.591871 91.485577 
L 112.247923 92.59095 
L 112.575949 93.777524 
L 112.903975 98.009799 
L 113.232002 100.111488 
L 113.560028 101.077784 
L 113.888054 99.354565 
L 114.21608 96.90996 
L 114.872133 101.454587 
L 115.200159 100.703132 
L 115.528185 99.631016 
L 115.856211 102.97391 
L 116.184238 103.084932 
L 116.512264 98.208657 
L 116.84029 97.989698 
L 117.168316 96.535322 
L 117.496342 96.076701 
L 117.824369 97.488016 
L 118.152395 92.97016 
L 118.480421 94.800112 
L 118.808447 93.995245 
L 119.136473 96.712178 
L 119.4645 96.842351 
L 119.792526 100.172684 
L 120.120552 100.398175 
L 120.448578 105.748707 
L 120.776604 99.698624 
L 121.104631 95.9596 
L 121.432657 98.99422 
L 122.088709 99.96139 
L 122.416735 101.227201 
L 123.072788 97.901145 
L 123.400814 98.608339 
L 123.72884 103.562113 
L 124.056867 104.254376 
L 124.384893 107.951719 
L 124.712919 109.525047 
L 125.040945 108.185076 
L 125.368971 110.74699 
L 125.696998 110.525255 
L 126.025024 110.648822 
L 126.35305 110.425548 
L 126.681076 113.034209 
L 127.009102 109.14654 
L 127.337129 114.830335 
L 127.665155 116.767032 
L 128.321207 116.708206 
L 128.649233 118.192874 
L 128.97726 122.333695 
L 129.305286 122.49935 
L 129.633312 123.275217 
L 129.961338 118.974388 
L 130.289364 117.947302 
L 130.617391 112.241157 
L 130.945417 113.897288 
L 131.273443 114.269715 
L 131.601469 114.835377 
L 131.929495 114.096532 
L 132.257522 117.996872 
L 132.585548 119.825556 
L 133.2416 113.053866 
L 133.569627 115.823696 
L 133.897653 115.810185 
L 134.225679 117.53179 
L 134.553705 116.452425 
L 134.881731 116.691005 
L 135.209758 118.721577 
L 135.537784 118.760617 
L 135.86581 121.665475 
L 136.193836 121.992467 
L 136.521862 122.876676 
L 136.849889 122.488882 
L 137.177915 122.449987 
L 137.505941 123.282985 
L 137.833967 123.00744 
L 138.161993 126.570718 
L 138.49002 127.378028 
L 138.818046 126.266473 
L 139.474098 122.590867 
L 140.130151 127.155228 
L 140.458177 124.492196 
L 140.786203 119.979267 
L 141.114229 119.059627 
L 141.442256 120.005469 
L 141.770282 118.250747 
L 142.426334 121.361496 
L 142.75436 118.517382 
L 143.082387 117.721413 
L 143.410413 120.04174 
L 143.738439 117.710544 
L 144.066465 119.113583 
L 144.722518 113.847424 
L 145.050544 108.083167 
L 145.37857 108.297301 
L 145.706596 113.554807 
L 146.034622 115.419377 
L 146.690675 122.138464 
L 147.018701 127.947769 
L 147.346727 125.916178 
L 147.674753 124.701666 
L 148.00278 120.940143 
L 148.330806 124.14861 
L 148.658832 123.493323 
L 148.986858 121.55601 
L 149.314885 117.628243 
L 150.298963 122.552592 
L 150.626989 121.910861 
L 150.955016 124.739988 
L 151.283042 126.053926 
L 151.611068 124.786543 
L 151.939094 123.058752 
L 152.26712 124.25048 
L 152.595147 123.794793 
L 152.923173 124.751687 
L 153.251199 127.585893 
L 153.579225 129.0067 
L 153.907251 128.149894 
L 154.235278 125.930808 
L 154.563304 128.018928 
L 154.89133 125.497772 
L 155.219356 125.281092 
L 155.547382 126.722023 
L 156.203435 131.030594 
L 156.531461 130.582957 
L 157.187514 128.36041 
L 157.51554 132.287896 
L 157.843566 126.682906 
L 158.171592 124.158817 
L 158.499618 126.109128 
L 158.827645 130.091814 
L 159.155671 129.621679 
L 159.483697 125.171212 
L 159.811723 125.126847 
L 160.139749 130.677575 
L 160.467776 125.915777 
L 160.795802 125.059056 
L 161.123828 126.928738 
L 161.451854 123.349795 
L 161.77988 127.515145 
L 162.107907 125.581337 
L 162.435933 126.019376 
L 162.763959 121.436041 
L 163.091985 121.530962 
L 163.420011 121.47897 
L 163.748038 123.902667 
L 164.076064 122.396782 
L 164.40409 125.804619 
L 164.732116 126.446714 
L 165.060143 126.206915 
L 165.388169 124.794972 
L 165.716195 118.350216 
L 166.044221 122.468417 
L 166.372247 122.220874 
L 166.700274 122.287216 
L 167.0283 125.578091 
L 168.012378 119.24171 
L 168.340405 115.708296 
L 168.668431 120.730868 
L 168.996457 115.442617 
L 169.324483 113.87457 
L 169.652509 116.521744 
L 169.980536 117.229798 
L 170.308562 112.247563 
L 170.636588 104.632135 
L 170.964614 101.765715 
L 171.29264 103.826472 
L 171.620667 102.54011 
L 171.948693 102.225813 
L 172.276719 103.186301 
L 172.604745 107.429562 
L 172.932771 104.939653 
L 173.260798 101.334305 
L 173.588824 101.511913 
L 173.91685 100.106375 
L 174.244876 95.673196 
L 174.900929 100.939473 
L 175.228955 100.74171 
L 175.556981 104.29574 
L 175.885007 103.702424 
L 176.869086 94.303752 
L 177.197112 95.157379 
L 177.525138 94.175478 
L 178.181191 101.380732 
L 178.509217 102.29077 
L 178.837243 104.952637 
L 179.165269 102.495327 
L 179.493296 100.898991 
L 179.821322 99.93325 
L 180.149348 97.435185 
L 180.477374 97.987692 
L 180.8054 95.95145 
L 181.133427 96.805646 
L 181.461453 97.089518 
L 181.789479 98.322326 
L 182.117505 97.717039 
L 182.445532 99.873214 
L 182.773558 96.474763 
L 183.101584 98.79301 
L 183.42961 97.149074 
L 183.757636 90.147276 
L 184.085663 87.15231 
L 184.413689 90.941932 
L 185.397767 81.685388 
L 185.725794 78.928987 
L 186.05382 78.171378 
L 186.381846 82.43439 
L 186.709872 78.556222 
L 187.037898 80.626854 
L 187.365925 86.271745 
L 187.693951 87.542881 
L 188.021977 85.767813 
L 188.350003 85.427904 
L 188.678029 86.779937 
L 189.006056 91.085806 
L 189.334082 92.299352 
L 189.662108 94.046436 
L 189.990134 95.021115 
L 190.318161 93.319592 
L 190.974213 96.293762 
L 191.302239 97.787688 
L 191.630265 98.513642 
L 191.958292 95.113429 
L 192.286318 97.579024 
L 192.614344 94.52102 
L 192.94237 94.502151 
L 193.270396 97.954717 
L 193.926449 91.697244 
L 194.254475 96.510056 
L 194.582501 96.799342 
L 194.910527 95.236417 
L 195.238554 92.340924 
L 195.56658 86.485733 
L 195.894606 88.511546 
L 196.222632 85.172426 
L 196.550658 86.339174 
L 196.878685 83.169535 
L 197.206711 89.729936 
L 197.534737 85.5713 
L 197.862763 85.570151 
L 198.19079 89.213184 
L 198.846842 87.814031 
L 199.174868 88.269735 
L 199.502894 90.910411 
L 199.830921 87.114525 
L 200.158947 80.609748 
L 200.486973 76.908605 
L 200.814999 78.390895 
L 201.143025 77.835927 
L 201.471052 73.604248 
L 201.799078 78.078471 
L 202.127104 78.713383 
L 202.45513 82.157201 
L 202.783156 82.127742 
L 203.111183 84.166536 
L 203.439209 87.652438 
L 203.767235 87.138898 
L 204.423287 83.909604 
L 204.751314 84.329299 
L 205.07934 83.886275 
L 205.735392 88.248294 
L 206.063419 84.890588 
L 206.391445 85.807508 
L 206.719471 86.236557 
L 207.047497 87.325387 
L 207.375523 86.063118 
L 208.031576 95.263376 
L 208.359602 94.361311 
L 208.687628 98.531726 
L 209.015654 99.166256 
L 209.343681 98.795963 
L 209.671707 103.17281 
L 209.999733 98.177008 
L 210.327759 98.952414 
L 210.655785 97.362105 
L 210.983812 96.613857 
L 211.311838 96.449392 
L 211.639864 95.651885 
L 211.96789 97.770587 
L 212.295916 98.79375 
L 212.951969 106.991868 
L 213.279995 102.763469 
L 213.608021 102.916849 
L 213.936048 104.303849 
L 214.264074 101.097815 
L 214.5921 99.514222 
L 214.920126 96.016272 
L 215.248152 103.47964 
L 215.576179 102.767721 
L 215.904205 106.579932 
L 216.232231 106.542391 
L 216.560257 103.873558 
L 217.21631 113.495186 
L 217.544336 111.517414 
L 217.872362 116.3131 
L 218.200388 114.888742 
L 218.528414 114.188674 
L 218.856441 112.053844 
L 219.512493 117.675936 
L 220.168545 123.247117 
L 220.496572 123.270326 
L 220.824598 119.26016 
L 221.152624 118.940071 
L 221.48065 114.738084 
L 221.808676 118.780651 
L 222.136703 117.909969 
L 222.464729 122.162692 
L 222.792755 119.282858 
L 223.120781 119.257386 
L 223.776834 113.397799 
L 224.10486 117.516528 
L 224.432886 118.585255 
L 224.760912 122.554697 
L 225.088939 123.409997 
L 225.416965 123.171133 
L 225.744991 121.36771 
L 226.073017 121.503136 
L 226.401043 121.850232 
L 226.72907 122.442424 
L 227.057096 121.533331 
L 227.385122 122.240333 
L 227.713148 124.325322 
L 228.041174 127.958825 
L 228.369201 128.951639 
L 228.697227 127.828057 
L 229.025253 125.197378 
L 229.353279 129.759038 
L 229.681305 126.800477 
L 230.009332 126.579744 
L 230.337358 129.460102 
L 230.665384 127.986595 
L 230.99341 127.167352 
L 231.321437 125.711053 
L 231.649463 129.323438 
L 231.977489 128.425246 
L 232.633541 135.387316 
L 232.961568 137.797745 
L 233.289594 139.112833 
L 233.61762 144.328964 
L 234.273672 140.851119 
L 234.929725 134.951244 
L 235.257751 133.763654 
L 235.585777 131.108524 
L 235.913803 131.614816 
L 236.897882 139.840546 
L 237.225908 138.362362 
L 237.553934 138.184323 
L 237.881961 135.832287 
L 238.209987 134.966679 
L 238.538013 131.687389 
L 239.194066 135.263231 
L 239.522092 136.598399 
L 239.850118 134.253757 
L 240.178144 135.97351 
L 240.50617 136.616313 
L 240.834197 135.192475 
L 241.162223 136.600923 
L 241.490249 140.723305 
L 241.818275 143.350882 
L 242.146301 143.409648 
L 242.474328 140.939149 
L 243.458406 154.355103 
L 243.786432 154.254826 
L 244.770511 166.152506 
L 245.098537 166.330839 
L 245.426563 166.990562 
L 245.75459 166.235698 
L 246.082616 167.475664 
L 246.410642 172.494282 
L 246.738668 179.964733 
L 247.066695 175.378252 
L 247.394721 177.802673 
L 247.722747 179.280938 
L 248.050773 182.662103 
L 248.378799 183.613109 
L 248.706826 186.318774 
L 249.034852 187.700578 
L 249.362878 184.903552 
L 249.690904 185.709677 
L 250.01893 185.400348 
L 250.346957 182.752558 
L 250.674983 182.475695 
L 251.003009 184.936244 
L 251.331035 186.218511 
L 251.659061 184.464279 
L 251.987088 184.835024 
L 252.315114 190.281728 
L 252.64314 189.601879 
L 252.971166 190.345712 
L 253.299192 192.190008 
L 253.627219 197.718205 
L 253.955245 197.393651 
L 254.283271 203.107112 
L 254.611297 204.195726 
L 254.939324 204.215209 
L 255.595376 205.328722 
L 256.251428 209.622362 
L 256.579455 203.975031 
L 257.563533 210.521794 
L 257.891559 213.751488 
L 258.219586 213.958477 
L 258.547612 214.491606 
L 258.875638 215.680931 
L 259.203664 217.759112 
L 259.53169 217.474726 
L 260.187743 220.786675 
L 260.515769 220.520572 
L 260.843795 221.743406 
L 261.171821 218.468298 
L 261.499848 219.658767 
L 261.827874 223.141432 
L 262.1559 221.725692 
L 262.483926 224.042128 
L 262.811952 222.220928 
L 263.139979 226.58464 
L 263.468005 226.497721 
L 263.796031 231.78405 
L 264.124057 232.623374 
L 264.452084 234.141374 
L 265.108136 240.155136 
L 265.436162 241.109156 
L 265.764188 236.128905 
L 266.092215 233.686065 
L 266.420241 235.437453 
L 266.748267 230.232021 
L 267.076293 229.868899 
L 267.404319 238.073214 
L 267.732346 238.871466 
L 268.060372 236.204812 
L 268.388398 239.936177 
L 268.716424 240.626321 
L 269.04445 241.007615 
L 269.372477 239.435273 
L 270.028529 243.110296 
L 270.356555 237.908904 
L 270.684581 244.591803 
L 271.012608 244.949159 
L 271.340634 246.940587 
L 271.66866 247.127742 
L 271.996686 250.64299 
L 272.980765 254.783152 
L 273.308791 251.904897 
L 273.636817 255.361368 
L 273.964844 254.500835 
L 274.29287 254.575287 
L 274.620896 257.681543 
L 274.948922 258.594182 
L 275.276948 256.105496 
L 275.604975 257.308425 
L 275.933001 254.186029 
L 276.261027 253.734269 
L 276.589053 256.565222 
L 276.917079 263.38786 
L 277.245106 266.493974 
L 277.573132 263.690228 
L 277.901158 268.201849 
L 278.229184 269.594609 
L 278.55721 268.213665 
L 278.885237 262.377748 
L 279.213263 263.810535 
L 279.541289 265.919601 
L 279.869315 262.697857 
L 280.197342 268.327637 
L 280.525368 266.326315 
L 280.853394 265.752496 
L 281.18142 266.757487 
L 281.837473 269.87462 
L 282.165499 270.008343 
L 282.493525 271.38189 
L 282.821551 262.27866 
L 283.149577 261.566584 
L 284.133656 266.250122 
L 284.461682 266.06229 
L 284.789708 264.407 
L 285.117735 268.039004 
L 285.445761 266.446988 
L 285.773787 269.451751 
L 286.101813 270.969976 
L 286.757866 260.509592 
L 287.085892 261.817615 
L 287.413918 259.844538 
L 287.741944 264.839191 
L 288.069971 260.03858 
L 288.397997 261.16328 
L 288.726023 260.163432 
L 289.054049 263.355527 
L 289.382075 261.376442 
L 289.710102 254.833428 
L 290.038128 250.906355 
L 290.366154 250.713242 
L 290.69418 250.901672 
L 291.350233 255.635819 
L 291.678259 252.793922 
L 292.006285 251.883058 
L 292.334311 248.485378 
L 292.662337 241.48465 
L 292.990364 238.46767 
L 293.31839 239.706892 
L 293.646416 241.832449 
L 294.302468 242.628395 
L 294.630495 247.166049 
L 294.958521 246.991437 
L 295.286547 243.33597 
L 295.614573 242.896113 
L 295.9426 249.468934 
L 296.270626 251.147771 
L 296.598652 246.449022 
L 296.926678 247.232208 
L 297.910757 255.294729 
L 298.238783 256.738235 
L 298.566809 256.996581 
L 298.894835 255.999865 
L 299.222862 260.70992 
L 299.550888 261.192649 
L 299.878914 264.246188 
L 300.20694 264.563377 
L 300.534966 264.555657 
L 300.862993 261.544256 
L 301.191019 261.024031 
L 301.847071 254.445596 
L 302.175097 254.398479 
L 302.503124 253.383303 
L 302.83115 256.442308 
L 303.159176 252.747042 
L 303.487202 256.70672 
L 303.815229 257.993106 
L 304.143255 255.247842 
L 304.471281 251.347475 
L 305.127333 248.388686 
L 305.783386 239.941853 
L 306.111412 243.350923 
L 306.439438 244.126558 
L 306.767464 246.563756 
L 307.095491 245.998344 
L 307.423517 244.152484 
L 308.079569 246.347763 
L 308.407595 242.568211 
L 309.063648 243.791059 
L 309.391674 246.368915 
L 309.7197 246.527781 
L 310.047726 248.830616 
L 310.375753 246.665985 
L 310.703779 239.139801 
L 311.031805 240.052998 
L 311.359831 235.802616 
L 311.687857 238.049644 
L 312.015884 243.222015 
L 312.34391 242.117447 
L 312.671936 245.718076 
L 312.999962 244.324812 
L 313.327989 244.370915 
L 313.656015 248.013208 
L 313.984041 248.96267 
L 314.96812 236.817166 
L 315.296146 238.343052 
L 315.952198 246.174664 
L 316.280224 252.93696 
L 316.608251 254.833894 
L 316.936277 255.119388 
L 317.264303 249.751812 
L 317.592329 247.793418 
L 317.920355 250.770189 
L 318.248382 255.595858 
L 318.576408 257.473927 
L 319.23246 254.082597 
L 319.560486 254.813417 
L 320.216539 246.229387 
L 320.544565 243.256434 
L 320.872591 248.539591 
L 321.200618 250.133555 
L 321.528644 255.724145 
L 321.85667 258.757863 
L 322.184696 260.562774 
L 322.512722 260.166937 
L 322.840749 254.299776 
L 323.168775 254.016803 
L 323.824827 258.624716 
L 324.152853 256.36805 
L 324.48088 261.55816 
L 325.136932 260.307806 
L 325.792984 255.069522 
L 326.121011 254.702169 
L 326.449037 255.589418 
L 326.777063 254.721652 
L 327.105089 252.543505 
L 328.089168 267.845775 
L 328.417194 264.243101 
L 328.74522 262.826498 
L 329.073247 266.279135 
L 329.401273 267.13633 
L 329.729299 267.1369 
L 330.057325 266.542328 
L 330.385351 265.059445 
L 330.713378 261.611975 
L 331.041404 261.155648 
L 331.697456 247.686208 
L 332.025482 247.303034 
L 332.353509 249.194571 
L 332.681535 249.353709 
L 333.009561 249.839217 
L 333.665613 247.233464 
L 333.99364 250.153277 
L 334.321666 246.77334 
L 334.649692 247.1012 
L 334.977718 250.911677 
L 335.305744 252.06611 
L 335.633771 248.334088 
L 335.961797 249.616706 
L 336.289823 248.128798 
L 336.617849 248.537647 
L 336.945876 243.914839 
L 337.273902 243.394307 
L 337.601928 242.443127 
L 337.929954 242.205895 
L 338.586007 244.25242 
L 338.914033 248.870986 
L 339.242059 245.426024 
L 339.570085 244.142319 
L 339.898111 244.672515 
L 340.226138 247.174443 
L 340.554164 246.469315 
L 340.88219 246.635096 
L 341.538242 247.584447 
L 341.866269 243.414051 
L 342.194295 241.859475 
L 342.522321 243.367793 
L 342.850347 243.706883 
L 343.178373 248.670896 
L 343.5064 249.182552 
L 343.834426 253.325124 
L 344.162452 245.731177 
L 344.490478 245.502128 
L 344.818505 245.807325 
L 345.474557 243.556278 
L 345.802583 241.328003 
L 346.130609 244.484849 
L 346.458636 243.917282 
L 346.786662 243.863845 
L 347.114688 243.385442 
L 347.442714 245.36802 
L 347.77074 242.795347 
L 348.098767 248.484774 
L 348.426793 251.798986 
L 349.410871 245.399192 
L 350.066924 247.877856 
L 350.39495 245.262222 
L 350.722976 250.344028 
L 351.051002 252.73084 
L 351.379029 254.174802 
L 351.707055 256.390563 
L 352.035081 255.369254 
L 352.363107 256.553001 
L 352.691133 260.635004 
L 353.347186 258.616168 
L 353.675212 254.605013 
L 354.003238 260.658206 
L 354.331265 262.505621 
L 354.659291 265.807618 
L 354.987317 265.123007 
L 355.315343 263.886403 
L 355.643369 261.985938 
L 355.971396 263.930415 
L 356.627448 271.014342 
L 356.955474 281.019413 
L 357.611527 282.820021 
L 357.939553 285.732783 
L 358.267579 284.514874 
L 358.595605 282.670698 
L 358.923631 285.848445 
L 359.251658 285.148768 
L 359.90771 289.332 
L 360.235736 285.282429 
L 360.563762 284.172646 
L 360.891789 282.202861 
L 361.219815 282.065617 
L 361.547841 284.043456 
L 361.875867 282.711269 
L 362.203894 283.976855 
L 362.53192 283.116512 
L 362.859946 283.885083 
L 363.187972 281.064474 
L 363.515998 275.962991 
L 363.844025 276.761094 
L 364.172051 280.496878 
L 364.500077 278.214379 
L 364.828103 282.833375 
L 365.156129 283.609309 
L 365.484156 278.392867 
L 366.140208 274.266984 
L 366.468234 279.471941 
L 366.79626 281.574377 
L 367.124287 281.624637 
L 367.452313 289.072924 
L 367.780339 286.788121 
L 368.108365 286.671728 
L 368.436391 283.963679 
L 368.764418 283.634659 
L 369.42047 278.544077 
L 369.748496 279.135017 
L 370.076523 279.30751 
L 370.404549 274.842452 
L 370.732575 275.347569 
L 371.060601 268.552584 
L 371.388627 269.268565 
L 371.716654 268.957001 
L 372.04468 269.701855 
L 372.372706 267.864283 
L 372.700732 269.239356 
L 373.028758 271.506719 
L 373.356785 277.27375 
L 373.684811 278.3806 
L 374.012837 272.069052 
L 374.340863 268.838968 
L 374.668889 269.628682 
L 374.996916 272.581083 
L 375.980994 268.472437 
L 376.30902 275.41949 
L 376.637047 276.55552 
L 376.965073 274.989536 
L 377.293099 274.407027 
L 377.621125 271.07701 
L 377.949152 272.965981 
L 378.277178 269.480399 
L 378.605204 268.677799 
L 378.93323 270.421667 
L 379.917309 262.308907 
L 380.245335 265.423356 
L 380.573361 263.408449 
L 380.901387 262.954981 
L 381.229414 261.110915 
L 381.55744 261.306444 
L 381.885466 259.564144 
L 382.541518 262.618086 
L 382.869545 265.510381 
L 383.197571 263.026499 
L 383.525597 265.095771 
L 383.853623 264.453095 
L 384.181649 264.236863 
L 384.509676 267.626108 
L 384.837702 268.964159 
L 385.493754 261.321645 
L 385.821781 260.611671 
L 386.149807 263.40724 
L 386.477833 271.481856 
L 386.805859 268.8076 
L 387.133885 268.261581 
L 387.461912 269.323858 
L 387.789938 268.68569 
L 388.117964 265.962578 
L 388.44599 266.594198 
L 388.774016 270.629736 
L 389.102043 270.002331 
L 389.430069 270.165662 
L 389.758095 271.308669 
L 390.086121 268.392216 
L 390.414147 268.678172 
L 390.742174 264.328293 
L 391.0702 262.122486 
L 391.398226 262.430759 
L 391.726252 257.948136 
L 392.054278 258.763346 
L 392.710331 253.710037 
L 393.038357 251.804394 
L 393.366383 247.526248 
L 393.69441 249.081513 
L 394.022436 247.309352 
L 394.350462 253.803394 
L 394.678488 248.89756 
L 395.006514 247.279122 
L 395.334541 251.302759 
L 395.990593 256.186177 
L 396.318619 252.790966 
L 396.646645 257.059163 
L 396.974672 256.583375 
L 397.302698 257.772388 
L 397.630724 259.791419 
L 398.286776 255.117335 
L 398.614803 257.604736 
L 398.942829 255.191137 
L 399.270855 257.043265 
L 399.598881 256.879024 
L 399.926907 257.363371 
L 400.58296 250.604269 
L 400.910986 248.740041 
L 401.239012 249.472703 
L 401.567038 251.435069 
L 401.895065 246.473554 
L 402.223091 247.888018 
L 402.223091 247.888018 
" style="fill:none;stroke:#000000;stroke-linecap:square;stroke-width:1.5;"/>
   </g>
   <g id="line2d_13">
    <path clip-path="url(#p4d055c6b72)" d="M 74.524909 97.912741 
L 74.852935 98.221244 
L 75.180962 99.609934 
L 75.508988 99.497576 
L 75.837014 100.757685 
L 76.16504 100.70169 
L 76.821093 97.534247 
L 77.149119 97.943711 
L 77.477145 100.547972 
L 78.133197 109.694168 
L 78.461224 106.623041 
L 78.78925 106.291834 
L 79.117276 104.57686 
L 79.445302 105.541556 
L 79.773328 105.46666 
L 80.101355 105.785246 
L 80.429381 105.52886 
L 80.757407 98.962485 
L 81.085433 100.476473 
L 81.413459 103.460302 
L 81.741486 104.977821 
L 82.069512 101.25134 
L 82.725564 103.321771 
L 83.05359 103.465534 
L 83.381617 102.096654 
L 83.709643 105.083734 
L 84.037669 109.218199 
L 84.365695 105.143069 
L 85.021748 105.579324 
L 85.349774 107.689626 
L 86.005826 101.744541 
L 86.333853 102.090835 
L 86.661879 99.548177 
L 86.989905 102.866274 
L 87.317931 102.0799 
L 87.645957 104.555059 
L 87.973984 109.150987 
L 88.30201 110.491423 
L 88.630036 109.373752 
L 88.958062 112.21844 
L 89.286088 111.694186 
L 89.614115 109.6042 
L 89.942141 109.954897 
L 90.270167 106.887023 
L 90.598193 106.528325 
L 90.926219 102.149659 
L 91.254246 101.946326 
L 91.910298 105.535738 
L 92.238324 108.340052 
L 92.566351 106.531504 
L 92.894377 106.702021 
L 93.222403 109.192424 
L 93.550429 107.132627 
L 93.878455 110.954874 
L 94.206482 109.539159 
L 94.534508 111.118972 
L 94.862534 119.205717 
L 95.19056 116.953139 
L 95.518586 116.74219 
L 95.846613 116.252827 
L 96.174639 114.712053 
L 96.502665 115.98253 
L 97.158717 120.728671 
L 97.486744 119.173719 
L 97.81477 114.118857 
L 98.142796 116.104463 
L 98.470822 115.161758 
L 98.798848 118.604719 
L 99.454901 115.069481 
L 99.782927 115.346074 
L 100.110953 117.002396 
L 100.43898 114.918147 
L 100.767006 115.744379 
L 101.095032 112.431618 
L 101.423058 111.514367 
L 101.751084 116.497417 
L 102.079111 116.090775 
L 102.407137 118.375517 
L 102.735163 118.092748 
L 103.063189 111.324417 
L 103.719242 114.010508 
L 104.047268 113.099541 
L 104.375294 118.993666 
L 104.70332 118.419253 
L 105.031346 122.283048 
L 105.687399 118.98955 
L 106.015425 115.317465 
L 106.343451 115.387842 
L 106.671477 115.931649 
L 106.999504 117.706972 
L 107.32753 116.972039 
L 107.655556 116.73219 
L 107.983582 112.489359 
L 108.311609 116.864415 
L 108.639635 123.185868 
L 109.295687 126.138247 
L 109.623713 124.369798 
L 109.95174 124.81698 
L 110.279766 124.408846 
L 110.607792 124.978267 
L 110.935818 124.758739 
L 111.263844 124.368456 
L 111.591871 125.317249 
L 111.919897 120.025001 
L 112.247923 118.26244 
L 112.575949 117.76049 
L 112.903975 122.671515 
L 113.232002 121.157389 
L 113.560028 116.758389 
L 114.21608 122.468064 
L 114.544106 121.234211 
L 114.872133 121.116914 
L 115.200159 118.882653 
L 115.528185 118.090049 
L 115.856211 119.277422 
L 116.184238 124.169361 
L 116.512264 123.786636 
L 117.168316 120.603565 
L 117.496342 122.005849 
L 118.152395 120.627894 
L 118.480421 117.032588 
L 118.808447 117.162572 
L 119.136473 115.748779 
L 119.4645 112.270228 
L 119.792526 111.864699 
L 120.120552 115.275087 
L 120.448578 115.771543 
L 120.776604 118.916124 
L 121.104631 116.598996 
L 121.432657 116.829439 
L 121.760683 118.196932 
L 122.088709 116.730007 
L 122.416735 116.872625 
L 122.744762 115.914973 
L 123.072788 113.374506 
L 123.400814 113.166281 
L 123.72884 112.047258 
L 124.056867 108.788942 
L 124.384893 106.68061 
L 124.712919 105.598764 
L 125.040945 104.961599 
L 125.368971 107.094665 
L 125.696998 110.474038 
L 126.025024 108.064005 
L 126.35305 109.808179 
L 126.681076 107.806047 
L 127.009102 103.701191 
L 127.337129 101.540432 
L 127.665155 98.243125 
L 127.993181 98.038391 
L 128.321207 98.038461 
L 128.649233 97.123009 
L 128.97726 94.002219 
L 129.305286 93.286532 
L 129.633312 89.435137 
L 129.961338 88.627618 
L 130.289364 91.032752 
L 130.617391 90.204863 
L 130.945417 85.828836 
L 131.273443 85.636421 
L 131.601469 86.248472 
L 131.929495 84.659783 
L 132.257522 80.369685 
L 132.585548 82.546769 
L 132.913574 81.613184 
L 133.2416 82.417032 
L 133.569627 81.673357 
L 133.897653 81.673094 
L 134.225679 81.383522 
L 134.553705 82.658099 
L 134.881731 81.433528 
L 135.209758 78.672184 
L 135.537784 78.144528 
L 135.86581 78.840128 
L 136.193836 84.053177 
L 136.521862 82.887331 
L 136.849889 86.637509 
L 137.177915 86.477668 
L 137.505941 87.802703 
L 137.833967 91.763262 
L 138.161993 90.722612 
L 138.49002 96.163687 
L 138.818046 98.216548 
L 139.146072 92.357903 
L 139.802124 87.201691 
L 140.458177 90.610363 
L 140.786203 90.428976 
L 141.114229 89.648009 
L 141.442256 94.026159 
L 141.770282 89.670476 
L 142.098308 86.892971 
L 142.426334 85.317973 
L 142.75436 86.902722 
L 143.410413 81.98235 
L 143.738439 83.038019 
L 144.066465 84.656433 
L 144.394491 81.94894 
L 144.722518 85.965152 
L 145.050544 87.657801 
L 145.37857 88.177284 
L 145.706596 92.336234 
L 146.034622 92.817736 
L 146.362649 95.342183 
L 146.690675 96.998238 
L 147.018701 99.584116 
L 147.346727 92.818596 
L 147.674753 97.02645 
L 148.00278 93.520466 
L 148.330806 93.536978 
L 148.658832 95.260819 
L 148.986858 100.740889 
L 149.314885 99.275149 
L 149.642911 98.700045 
L 149.970937 94.987256 
L 150.298963 97.26603 
L 150.626989 98.434783 
L 151.939094 88.784396 
L 152.26712 90.435699 
L 152.595147 90.282069 
L 152.923173 92.133538 
L 153.251199 88.496504 
L 153.579225 88.976879 
L 153.907251 89.234165 
L 154.235278 85.551003 
L 154.89133 88.582293 
L 155.219356 91.398414 
L 155.547382 85.984813 
L 155.875409 84.266164 
L 156.203435 87.397692 
L 156.531461 82.98457 
L 157.187514 77.790108 
L 157.51554 81.207739 
L 157.843566 82.209211 
L 158.171592 82.447142 
L 158.827645 82.438206 
L 159.155671 83.321066 
L 159.483697 82.237326 
L 160.467776 92.681125 
L 160.795802 90.479913 
L 161.123828 91.013061 
L 161.451854 90.990075 
L 161.77988 91.753947 
L 162.107907 94.447776 
L 162.435933 92.92703 
L 162.763959 87.567162 
L 163.091985 86.983304 
L 163.420011 87.509903 
L 163.748038 92.926028 
L 164.076064 92.968347 
L 164.40409 88.793943 
L 164.732116 87.547167 
L 165.060143 87.999051 
L 165.388169 88.963985 
L 165.716195 91.826797 
L 166.044221 88.239639 
L 166.372247 87.12919 
L 166.700274 83.300297 
L 167.0283 84.065744 
L 167.356326 85.948837 
L 167.684352 81.034068 
L 168.012378 79.835138 
L 168.340405 83.871677 
L 168.668431 83.268698 
L 168.996457 85.867775 
L 169.324483 92.571896 
L 169.980536 88.596539 
L 170.308562 87.695414 
L 170.636588 84.000935 
L 170.964614 85.233584 
L 171.29264 88.71626 
L 171.620667 84.14526 
L 171.948693 88.520654 
L 172.276719 87.703495 
L 172.604745 87.73706 
L 172.932771 91.878418 
L 173.260798 93.093742 
L 173.91685 105.199694 
L 174.244876 105.561838 
L 174.572903 110.629772 
L 174.900929 110.253104 
L 175.228955 109.407543 
L 175.556981 108.018263 
L 175.885007 103.349475 
L 176.213034 105.284233 
L 176.54106 104.104765 
L 176.869086 104.963454 
L 177.197112 101.32225 
L 177.525138 102.196446 
L 177.853165 106.48452 
L 178.181191 107.064161 
L 178.837243 101.834799 
L 179.821322 107.394891 
L 180.149348 110.276901 
L 180.477374 117.355929 
L 181.789479 110.100052 
L 182.117505 109.311568 
L 182.445532 111.40114 
L 182.773558 106.822554 
L 183.101584 111.406926 
L 183.42961 112.622684 
L 183.757636 112.736745 
L 184.085663 115.565502 
L 184.741715 113.670208 
L 185.069741 114.689037 
L 185.397767 114.806503 
L 185.725794 117.570405 
L 186.05382 118.196148 
L 186.381846 120.411131 
L 186.709872 117.347391 
L 187.037898 119.422769 
L 187.365925 120.512246 
L 187.693951 115.208775 
L 188.021977 115.73194 
L 188.678029 120.622351 
L 189.334082 123.755114 
L 189.990134 129.373974 
L 190.318161 128.562015 
L 190.646187 128.255533 
L 190.974213 127.11174 
L 191.302239 126.765183 
L 191.630265 130.648041 
L 191.958292 129.249346 
L 192.286318 127.020049 
L 192.614344 127.14638 
L 192.94237 120.77519 
L 193.270396 117.476739 
L 193.598423 118.058371 
L 193.926449 115.601972 
L 194.254475 117.880117 
L 194.582501 124.76208 
L 195.238554 130.425133 
L 195.56658 125.290137 
L 195.894606 124.945647 
L 196.222632 123.92609 
L 196.550658 118.966042 
L 196.878685 121.485462 
L 197.206711 122.498953 
L 197.534737 128.872961 
L 197.862763 125.673401 
L 198.19079 124.713524 
L 198.518816 120.300919 
L 198.846842 122.96777 
L 199.174868 120.773321 
L 199.502894 122.766601 
L 199.830921 123.587334 
L 200.158947 120.798229 
L 200.486973 122.944779 
L 200.814999 117.192381 
L 201.143025 118.016796 
L 201.471052 116.274083 
L 201.799078 120.432504 
L 202.127104 116.999494 
L 202.783156 113.046613 
L 203.111183 109.561256 
L 203.767235 108.146037 
L 204.095261 109.202481 
L 204.423287 113.763453 
L 204.751314 114.368947 
L 205.07934 111.947264 
L 205.407366 110.705431 
L 205.735392 108.790771 
L 206.063419 108.765508 
L 206.391445 109.406755 
L 206.719471 106.218627 
L 207.047497 111.098548 
L 207.375523 113.839729 
L 207.70355 115.327718 
L 208.031576 121.288625 
L 208.359602 117.962673 
L 208.687628 116.127869 
L 209.015654 109.65321 
L 209.671707 109.41017 
L 209.999733 106.365709 
L 210.655785 102.473376 
L 210.983812 104.706587 
L 211.311838 108.291718 
L 211.96789 107.100705 
L 212.295916 108.487207 
L 212.623943 111.133041 
L 212.951969 110.107619 
L 213.279995 109.87665 
L 213.608021 106.501675 
L 213.936048 105.449988 
L 214.264074 102.464548 
L 214.5921 103.253524 
L 214.920126 99.916875 
L 215.248152 101.085943 
L 215.576179 103.818323 
L 215.904205 99.886872 
L 216.232231 98.137521 
L 216.560257 95.060949 
L 216.888283 93.775269 
L 217.21631 93.637902 
L 217.544336 95.407136 
L 217.872362 98.649769 
L 218.200388 98.121088 
L 218.528414 100.903515 
L 218.856441 101.903898 
L 219.184467 102.027691 
L 219.512493 105.773049 
L 219.840519 107.768764 
L 220.168545 107.211025 
L 220.496572 108.289891 
L 220.824598 103.997408 
L 221.152624 104.774351 
L 221.48065 109.635745 
L 221.808676 105.041797 
L 222.136703 102.868058 
L 222.464729 106.369157 
L 222.792755 103.51377 
L 223.448808 103.034525 
L 223.776834 103.260728 
L 224.10486 103.722532 
L 224.432886 103.430484 
L 224.760912 105.062219 
L 225.088939 103.843524 
L 225.416965 98.184304 
L 225.744991 99.623839 
L 226.073017 100.076307 
L 226.401043 101.690572 
L 226.72907 106.155024 
L 227.057096 102.093944 
L 227.385122 102.720111 
L 227.713148 103.729137 
L 228.369201 94.650361 
L 228.697227 92.306456 
L 229.025253 87.939307 
L 229.353279 86.835436 
L 229.681305 87.733367 
L 230.009332 90.90187 
L 230.337358 88.115094 
L 230.665384 90.332723 
L 230.99341 89.158965 
L 231.321437 85.384266 
L 231.649463 84.94138 
L 231.977489 84.206738 
L 232.305515 84.039765 
L 232.633541 87.21197 
L 232.961568 85.973669 
L 233.289594 82.404968 
L 233.945646 79.589872 
L 234.273672 80.463722 
L 234.601699 81.002813 
L 235.585777 87.339297 
L 236.24183 89.43901 
L 236.569856 88.086333 
L 236.897882 81.2925 
L 237.225908 78.929895 
L 237.553934 74.936509 
L 237.881961 72.380262 
L 238.209987 74.60569 
L 238.866039 71.1654 
L 239.194066 71.383686 
L 239.522092 77.517992 
L 239.850118 77.656434 
L 240.178144 74.103578 
L 240.50617 72.258852 
L 241.162223 76.051517 
L 241.490249 78.51895 
L 241.818275 76.535901 
L 242.146301 77.476246 
L 242.802354 87.037186 
L 243.13038 83.962323 
L 243.458406 82.805552 
L 243.786432 73.974009 
L 244.114459 71.51739 
L 244.442485 70.331839 
L 244.770511 72.124152 
L 245.098537 71.419339 
L 245.426563 76.958415 
L 245.75459 71.707986 
L 246.082616 68.979562 
L 246.410642 75.387619 
L 247.066695 67.591239 
L 247.394721 66.557514 
L 248.050773 60.176514 
L 248.378799 61.234155 
L 248.706826 63.659333 
L 249.034852 62.901763 
L 249.362878 62.747199 
L 249.690904 67.08297 
L 250.01893 65.485566 
L 250.346957 69.360615 
L 250.674983 67.332857 
L 251.003009 67.743461 
L 251.331035 70.225353 
L 251.987088 71.917031 
L 252.315114 76.895568 
L 252.64314 79.43085 
L 252.971166 79.767353 
L 253.299192 78.187074 
L 253.627219 77.855411 
L 253.955245 80.142405 
L 254.283271 83.682715 
L 254.611297 84.121278 
L 254.939324 86.337849 
L 255.26735 87.189826 
L 255.923402 90.865295 
L 256.251428 90.516934 
L 256.579455 90.402091 
L 256.907481 91.613089 
L 257.235507 93.883838 
L 257.563533 91.748661 
L 257.891559 90.831284 
L 258.219586 87.47951 
L 258.547612 88.556734 
L 258.875638 88.757466 
L 259.203664 89.97116 
L 259.53169 93.048123 
L 259.859717 88.781795 
L 260.187743 92.973292 
L 260.515769 90.709836 
L 260.843795 91.34438 
L 261.171821 86.379701 
L 261.499848 84.901327 
L 262.1559 92.451662 
L 262.483926 92.938189 
L 262.811952 93.015426 
L 263.468005 81.158664 
L 263.796031 77.76055 
L 264.452084 84.994381 
L 264.78011 85.23773 
L 265.436162 90.346826 
L 266.092215 86.208028 
L 266.748267 84.338531 
L 267.076293 81.387069 
L 267.404319 87.067509 
L 268.060372 85.657301 
L 268.388398 87.298701 
L 268.716424 83.907424 
L 269.04445 86.131627 
L 269.372477 84.16317 
L 269.700503 80.18918 
L 270.028529 77.885841 
L 270.356555 79.433813 
L 270.684581 78.55993 
L 271.012608 78.914712 
L 271.340634 80.939981 
L 271.66866 78.821508 
L 271.996686 81.335872 
L 272.324713 80.790822 
L 272.652739 82.948341 
L 272.980765 79.636583 
L 273.308791 78.494602 
L 273.636817 75.695145 
L 273.964844 75.423688 
L 274.29287 79.330309 
L 274.620896 78.187753 
L 274.948922 82.774613 
L 275.276948 82.134056 
L 275.604975 82.9618 
L 275.933001 85.434646 
L 276.261027 84.441847 
L 276.589053 82.155063 
L 276.917079 80.716885 
L 277.245106 83.347705 
L 277.573132 80.934701 
L 277.901158 84.367815 
L 278.229184 90.349909 
L 278.885237 86.638737 
L 279.213263 85.765735 
L 280.197342 94.922222 
L 280.525368 95.798549 
L 280.853394 98.317177 
L 281.18142 96.891268 
L 281.509446 105.993656 
L 282.165499 108.109189 
L 282.493525 106.225507 
L 282.821551 106.423899 
L 283.149577 109.443752 
L 283.477604 111.320488 
L 284.133656 117.957625 
L 284.461682 117.897486 
L 284.789708 115.737037 
L 285.117735 115.954434 
L 285.773787 119.69347 
L 286.101813 116.489885 
L 286.429839 116.552408 
L 286.757866 118.580118 
L 287.085892 119.172438 
L 287.413918 118.348115 
L 287.741944 117.941607 
L 288.069971 116.866677 
L 288.726023 110.299273 
L 289.054049 109.307131 
L 289.382075 110.912758 
L 289.710102 109.688477 
L 290.038128 103.153811 
L 290.366154 102.492433 
L 290.69418 100.204745 
L 291.022206 100.546037 
L 291.678259 107.693805 
L 292.006285 108.152397 
L 292.334311 112.792096 
L 292.662337 110.982257 
L 292.990364 109.957151 
L 293.31839 112.31574 
L 293.646416 117.119582 
L 293.974442 119.986054 
L 294.302468 119.734358 
L 294.958521 122.538529 
L 295.614573 122.013367 
L 295.9426 124.861716 
L 296.270626 122.333721 
L 296.926678 124.014072 
L 297.254704 122.653204 
L 297.582731 123.977914 
L 297.910757 121.685425 
L 298.238783 116.364406 
L 298.566809 112.935859 
L 298.894835 112.665436 
L 299.222862 109.42147 
L 299.550888 112.123597 
L 299.878914 108.460652 
L 300.20694 107.323537 
L 300.534966 103.829487 
L 300.862993 107.432293 
L 301.191019 106.965968 
L 301.847071 98.842378 
L 302.175097 99.559755 
L 302.503124 103.88939 
L 302.83115 94.614233 
L 303.159176 98.810563 
L 303.487202 99.472381 
L 303.815229 100.955064 
L 304.143255 99.580959 
L 304.471281 99.114804 
L 304.799307 101.336858 
L 305.127333 100.393208 
L 305.45536 97.906135 
L 305.783386 100.415641 
L 306.111412 93.190717 
L 306.439438 100.209492 
L 306.767464 97.154392 
L 307.095491 100.284222 
L 307.423517 95.702781 
L 307.751543 94.666451 
L 308.079569 95.7498 
L 308.407595 98.093132 
L 309.063648 95.78733 
L 309.391674 94.900396 
L 309.7197 98.122264 
L 310.047726 96.335728 
L 310.375753 98.040477 
L 310.703779 96.415105 
L 311.031805 96.989392 
L 311.359831 99.884636 
L 311.687857 98.964021 
L 312.34391 103.468721 
L 312.671936 101.156392 
L 312.999962 101.518598 
L 313.327989 98.26624 
L 313.656015 103.373749 
L 313.984041 101.743806 
L 314.312067 98.88146 
L 314.640093 103.276944 
L 314.96812 101.214018 
L 315.296146 104.517372 
L 315.624172 100.80909 
L 315.952198 105.915456 
L 316.280224 107.213821 
L 316.608251 100.476859 
L 316.936277 99.110401 
L 317.264303 97.001544 
L 317.592329 97.183309 
L 317.920355 98.852988 
L 318.248382 99.503362 
L 318.576408 98.16523 
L 318.904434 93.902482 
L 319.23246 93.668203 
L 319.560486 91.361552 
L 319.888513 92.707309 
L 320.216539 95.3828 
L 320.544565 95.409952 
L 320.872591 101.302976 
L 321.200618 103.74099 
L 321.528644 105.330593 
L 321.85667 106.196106 
L 322.184696 106.042839 
L 322.512722 106.016299 
L 322.840749 110.671622 
L 323.168775 109.277541 
L 323.496801 107.202039 
L 323.824827 107.396293 
L 324.152853 107.781014 
L 324.48088 111.440933 
L 325.792984 92.78191 
L 326.449037 90.2706 
L 326.777063 93.368264 
L 327.105089 92.582162 
L 327.433115 84.298023 
L 327.761142 84.603669 
L 328.089168 83.991565 
L 328.417194 81.592311 
L 328.74522 86.093135 
L 329.073247 85.743904 
L 329.401273 83.648277 
L 329.729299 83.506104 
L 330.057325 87.94101 
L 330.713378 82.955516 
L 331.041404 82.08279 
L 331.36943 84.013422 
L 331.697456 80.269102 
L 332.025482 78.972657 
L 332.681535 87.857976 
L 333.009561 82.656908 
L 333.337587 81.798786 
L 333.665613 82.379306 
L 333.99364 80.729279 
L 334.321666 83.989456 
L 334.649692 85.058623 
L 334.977718 86.797391 
L 335.305744 90.96388 
L 335.633771 91.903159 
L 335.961797 89.9218 
L 336.289823 93.733704 
L 336.617849 94.085227 
L 336.945876 95.97348 
L 337.273902 94.614317 
L 337.601928 95.949343 
L 337.929954 92.284846 
L 338.25798 92.111334 
L 338.914033 100.02656 
L 339.242059 99.437774 
L 339.570085 99.625097 
L 339.898111 100.621018 
L 340.226138 101.258781 
L 340.554164 102.642921 
L 340.88219 99.68149 
L 341.210216 98.83085 
L 341.538242 97.022318 
L 341.866269 99.211532 
L 342.194295 104.042047 
L 342.522321 106.276934 
L 342.850347 107.362319 
L 343.5064 103.681186 
L 343.834426 98.23085 
L 344.162452 99.009103 
L 344.490478 103.56075 
L 344.818505 106.310777 
L 345.146531 105.608897 
L 345.474557 107.685978 
L 346.130609 102.212038 
L 346.458636 100.355255 
L 346.786662 100.956091 
L 347.114688 104.990291 
L 347.442714 105.978437 
L 347.77074 107.981537 
L 348.098767 108.970287 
L 348.426793 103.160618 
L 349.082845 98.232711 
L 349.410871 98.081843 
L 349.738898 101.599156 
L 350.066924 97.625464 
L 350.722976 100.788729 
L 351.379029 102.5188 
L 351.707055 99.089412 
L 352.035081 98.394622 
L 352.363107 98.275791 
L 352.691133 102.118169 
L 353.01916 103.59048 
L 353.675212 108.012658 
L 354.987317 120.984425 
L 355.315343 121.303721 
L 355.971396 116.615754 
L 356.299422 113.639472 
L 356.627448 114.95024 
L 356.955474 110.150409 
L 357.611527 115.140985 
L 357.939553 121.519448 
L 358.267579 130.767967 
L 358.595605 135.995645 
L 358.923631 137.329427 
L 359.251658 136.599781 
L 359.579684 132.639118 
L 359.90771 133.216959 
L 360.235736 132.147379 
L 360.563762 131.841416 
L 360.891789 130.938704 
L 361.219815 128.130985 
L 361.875867 136.84536 
L 362.203894 138.587388 
L 362.53192 136.908838 
L 362.859946 142.036341 
L 363.187972 145.142128 
L 363.515998 145.63696 
L 363.844025 147.995668 
L 364.172051 147.907665 
L 364.500077 147.66507 
L 364.828103 146.610771 
L 365.156129 143.662519 
L 365.484156 145.102253 
L 366.140208 156.516617 
L 366.468234 158.840703 
L 366.79626 156.321408 
L 367.124287 156.987061 
L 367.452313 155.482829 
L 367.780339 158.203557 
L 368.108365 159.794355 
L 368.436391 163.043607 
L 368.764418 161.398293 
L 370.404549 171.248271 
L 370.732575 170.861156 
L 371.716654 158.559863 
L 372.04468 158.373464 
L 372.700732 161.479395 
L 373.028758 160.602944 
L 373.356785 160.730252 
L 373.684811 159.525371 
L 374.012837 156.214919 
L 374.340863 156.994426 
L 374.668889 161.041471 
L 374.996916 160.061811 
L 375.324942 162.546781 
L 375.980994 158.691849 
L 376.30902 157.755826 
L 376.637047 158.864241 
L 376.965073 157.047959 
L 377.621125 150.732443 
L 377.949152 151.142699 
L 378.277178 155.003126 
L 378.605204 155.479135 
L 379.261256 158.666085 
L 379.589283 160.362003 
L 379.917309 157.945591 
L 380.245335 157.938028 
L 380.573361 160.317933 
L 381.229414 156.294682 
L 381.55744 157.749134 
L 381.885466 156.339198 
L 382.213492 156.901615 
L 382.541518 156.39414 
L 382.869545 156.310402 
L 383.197571 154.497352 
L 383.525597 154.32193 
L 383.853623 157.16873 
L 384.181649 154.865117 
L 384.509676 154.257855 
L 384.837702 151.270644 
L 385.493754 142.31355 
L 385.821781 141.077514 
L 386.149807 135.321731 
L 386.805859 130.189722 
L 387.133885 128.667521 
L 387.461912 129.184027 
L 387.789938 122.293938 
L 388.117964 122.102049 
L 388.44599 124.148995 
L 388.774016 118.561271 
L 389.430069 112.697408 
L 389.758095 113.238476 
L 390.414147 104.533468 
L 390.742174 107.780868 
L 391.0702 106.068332 
L 391.398226 111.210288 
L 391.726252 111.078868 
L 392.054278 112.792106 
L 392.382305 116.384442 
L 392.710331 113.478486 
L 393.038357 108.856291 
L 393.366383 114.186729 
L 393.69441 117.12618 
L 394.022436 116.409369 
L 394.350462 115.236361 
L 394.678488 120.667232 
L 395.006514 120.916484 
L 395.334541 119.436872 
L 395.662567 121.247197 
L 395.990593 118.305373 
L 396.318619 119.270906 
L 396.646645 118.996643 
L 396.974672 117.512857 
L 397.302698 122.613836 
L 397.95875 113.520731 
L 398.286776 114.53704 
L 398.614803 113.940327 
L 398.942829 109.298379 
L 399.270855 109.211553 
L 399.598881 112.821831 
L 399.926907 114.225106 
L 400.254934 116.57324 
L 400.58296 116.136488 
L 400.910986 119.44848 
L 401.239012 117.225798 
L 401.567038 117.51559 
L 401.895065 115.990605 
L 402.223091 109.705231 
L 402.223091 109.705231 
" style="fill:none;stroke:#0000ff;stroke-linecap:square;stroke-width:1.5;"/>
   </g>
   <g id="line2d_14">
    <path clip-path="url(#p4d055c6b72)" d="M 74.524909 101.924689 
L 74.852935 106.432756 
L 75.180962 103.300818 
L 75.508988 103.330324 
L 75.837014 103.795137 
L 76.493066 96.792026 
L 76.821093 100.09384 
L 77.149119 96.580718 
L 77.477145 97.249167 
L 77.805171 94.495029 
L 78.461224 96.767552 
L 79.117276 95.680754 
L 79.445302 88.306024 
L 79.773328 89.53566 
L 80.101355 88.345439 
L 80.429381 89.974224 
L 81.085433 89.00637 
L 81.741486 87.752748 
L 82.725564 92.972168 
L 83.381617 87.975347 
L 83.709643 89.183015 
L 84.037669 93.296292 
L 84.365695 93.518615 
L 85.021748 95.248086 
L 85.349774 92.372851 
L 85.6778 94.029015 
L 86.005826 91.18838 
L 86.333853 90.511629 
L 87.317931 95.775498 
L 87.645957 97.783122 
L 88.30201 85.703875 
L 88.630036 86.83422 
L 88.958062 90.488684 
L 89.286088 89.793574 
L 89.614115 92.059864 
L 89.942141 92.572838 
L 90.270167 93.918392 
L 90.598193 94.257529 
L 90.926219 94.803833 
L 91.254246 93.162211 
L 91.582272 92.824872 
L 91.910298 98.615948 
L 92.238324 96.715066 
L 92.566351 96.39978 
L 92.894377 98.284744 
L 93.550429 95.402236 
L 93.878455 95.876694 
L 94.206482 95.055899 
L 94.534508 96.741248 
L 94.862534 95.616286 
L 95.19056 89.503801 
L 95.518586 88.506623 
L 95.846613 85.894489 
L 96.174639 84.284242 
L 96.502665 86.763685 
L 96.830691 93.557966 
L 97.158717 91.406753 
L 97.81477 97.263565 
L 98.142796 93.172031 
L 98.470822 94.501902 
L 98.798848 96.514657 
L 99.126875 95.902816 
L 99.454901 92.423751 
L 99.782927 90.567475 
L 100.110953 90.958973 
L 100.43898 85.407545 
L 100.767006 86.574945 
L 101.095032 83.139045 
L 101.423058 82.598205 
L 102.079111 78.840679 
L 102.407137 79.074802 
L 102.735163 77.671905 
L 103.063189 77.571631 
L 103.391215 74.161096 
L 103.719242 77.880632 
L 104.047268 74.188469 
L 104.375294 73.466942 
L 104.70332 77.49643 
L 105.031346 76.82729 
L 105.359373 75.117481 
L 105.687399 79.103643 
L 106.015425 77.893821 
L 106.343451 77.212852 
L 106.671477 80.994926 
L 106.999504 80.959128 
L 107.32753 80.598445 
L 107.655556 78.659631 
L 107.983582 80.899649 
L 108.639635 81.780076 
L 108.967661 82.515281 
L 109.295687 84.615718 
L 109.623713 81.5498 
L 109.95174 81.822905 
L 110.279766 79.112288 
L 110.607792 71.324801 
L 110.935818 78.465961 
L 111.919897 86.503165 
L 112.247923 83.859923 
L 112.575949 83.128274 
L 112.903975 85.503399 
L 113.232002 89.479044 
L 113.560028 90.253805 
L 113.888054 87.861222 
L 114.21608 86.526562 
L 114.544106 88.487556 
L 115.200159 84.891461 
L 115.856211 90.787124 
L 116.184238 91.612411 
L 116.512264 89.326404 
L 116.84029 92.597456 
L 117.168316 90.205214 
L 117.496342 90.119843 
L 117.824369 87.924964 
L 118.152395 86.628464 
L 118.480421 83.536205 
L 118.808447 76.822612 
L 119.136473 77.629284 
L 119.4645 77.189866 
L 119.792526 78.191119 
L 120.120552 81.461399 
L 120.448578 82.80619 
L 120.776604 80.993184 
L 121.104631 83.090295 
L 121.432657 86.079609 
L 121.760683 85.302385 
L 122.088709 83.833326 
L 122.416735 83.896 
L 122.744762 83.542006 
L 123.072788 79.268216 
L 123.400814 82.76802 
L 123.72884 83.208386 
L 124.056867 84.410226 
L 124.384893 81.513874 
L 124.712919 81.154467 
L 125.040945 77.773809 
L 125.368971 76.103735 
L 125.696998 75.987804 
L 126.025024 75.397381 
L 126.35305 77.364187 
L 127.009102 65.763204 
L 127.337129 61.896427 
L 127.665155 66.392696 
L 127.993181 65.974251 
L 128.321207 69.267429 
L 128.649233 66.31348 
L 128.97726 66.058189 
L 129.305286 59.21244 
L 129.633312 59.211489 
L 129.961338 59.713622 
L 130.289364 59.611629 
L 130.617391 55.373653 
L 130.945417 56.243484 
L 131.273443 58.401787 
L 131.601469 54.356597 
L 131.929495 52.452 
L 132.257522 52.718878 
L 132.585548 58.435567 
L 133.569627 53.475033 
L 133.897653 60.579384 
L 134.225679 57.516155 
L 134.553705 59.413343 
L 134.881731 60.161714 
L 135.209758 56.211472 
L 135.86581 54.13516 
L 136.193836 57.114931 
L 136.521862 59.072355 
L 137.177915 56.083532 
L 137.505941 58.976565 
L 137.833967 59.777744 
L 138.161993 56.520541 
L 138.49002 58.41531 
L 138.818046 58.428843 
L 139.146072 61.062254 
L 139.474098 62.334068 
L 139.802124 64.458491 
L 140.130151 64.966195 
L 140.458177 62.542309 
L 140.786203 63.87756 
L 141.114229 59.15864 
L 141.442256 56.671799 
L 141.770282 58.498174 
L 142.098308 58.598764 
L 142.426334 59.309356 
L 143.410413 65.472699 
L 143.738439 65.96882 
L 144.394491 75.687366 
L 145.050544 76.325939 
L 145.37857 75.447272 
L 145.706596 71.816618 
L 146.034622 72.609904 
L 146.362649 70.686577 
L 146.690675 76.284422 
L 147.018701 74.948153 
L 147.346727 78.200835 
L 147.674753 78.030732 
L 148.00278 76.54832 
L 148.330806 76.864492 
L 148.658832 74.825827 
L 148.986858 77.766674 
L 149.314885 78.832907 
L 149.642911 81.946671 
L 149.970937 82.807459 
L 150.626989 85.019649 
L 150.955016 83.115853 
L 151.283042 78.228202 
L 151.611068 81.127419 
L 151.939094 78.840898 
L 152.595147 82.932427 
L 152.923173 82.892678 
L 153.251199 82.404386 
L 153.579225 79.60324 
L 153.907251 80.197484 
L 154.235278 75.958523 
L 154.89133 76.734905 
L 155.875409 72.74898 
L 156.203435 69.421124 
L 156.531461 70.42167 
L 156.859487 75.270559 
L 157.187514 77.593951 
L 157.51554 78.643654 
L 157.843566 73.252486 
L 158.171592 73.250278 
L 158.499618 76.108781 
L 158.827645 77.12661 
L 159.155671 76.754124 
L 159.483697 79.567115 
L 159.811723 77.88227 
L 160.139749 83.486974 
L 160.467776 85.377619 
L 160.795802 92.188902 
L 161.123828 92.021882 
L 161.451854 93.945106 
L 161.77988 97.916556 
L 162.107907 91.933097 
L 162.435933 94.656634 
L 162.763959 95.718674 
L 163.420011 90.721141 
L 163.748038 97.996703 
L 164.076064 99.056637 
L 164.40409 97.149784 
L 164.732116 97.722817 
L 165.060143 99.994709 
L 165.388169 97.897848 
L 165.716195 105.121234 
L 166.044221 101.391917 
L 166.372247 103.497135 
L 166.700274 103.233243 
L 167.0283 105.569647 
L 167.356326 104.763381 
L 167.684352 108.265404 
L 168.012378 108.150385 
L 168.340405 105.509457 
L 168.668431 107.957263 
L 168.996457 107.164952 
L 169.324483 106.910698 
L 169.652509 109.412369 
L 169.980536 118.902715 
L 170.308562 115.729715 
L 170.636588 117.766889 
L 170.964614 116.798772 
L 171.29264 118.661455 
L 171.620667 117.160229 
L 171.948693 113.247586 
L 172.276719 115.33389 
L 172.604745 113.140425 
L 172.932771 113.557859 
L 173.588824 116.026304 
L 173.91685 118.978367 
L 174.244876 119.335882 
L 174.572903 117.21087 
L 174.900929 117.171779 
L 175.556981 123.408952 
L 175.885007 119.839875 
L 176.213034 118.578549 
L 176.54106 114.077207 
L 176.869086 118.489216 
L 177.197112 116.641074 
L 177.525138 111.546412 
L 177.853165 114.527205 
L 178.181191 108.959106 
L 178.509217 109.851173 
L 178.837243 111.737679 
L 179.165269 114.704962 
L 179.493296 111.98378 
L 179.821322 112.402936 
L 180.149348 112.529503 
L 180.477374 113.790887 
L 180.8054 113.473534 
L 181.133427 110.967259 
L 181.461453 110.176259 
L 181.789479 109.883489 
L 182.117505 110.461017 
L 182.445532 110.72757 
L 183.101584 109.497097 
L 183.42961 116.791313 
L 183.757636 117.971626 
L 184.085663 117.704051 
L 184.413689 116.538239 
L 184.741715 113.982284 
L 185.069741 116.791367 
L 185.397767 115.871953 
L 185.725794 117.718164 
L 186.05382 116.411467 
L 186.381846 117.445286 
L 186.709872 118.974718 
L 187.037898 117.530359 
L 187.365925 119.579818 
L 187.693951 119.167703 
L 188.021977 119.355194 
L 188.350003 121.805604 
L 188.678029 121.108042 
L 189.006056 117.923785 
L 189.334082 116.547147 
L 189.662108 118.536241 
L 190.646187 110.035279 
L 190.974213 111.329065 
L 191.302239 113.404572 
L 191.630265 113.617663 
L 192.286318 118.119759 
L 192.614344 118.65713 
L 192.94237 116.303904 
L 193.270396 114.765983 
L 193.598423 118.486019 
L 193.926449 117.310594 
L 194.254475 118.625374 
L 194.582501 119.465692 
L 195.894606 104.194379 
L 196.222632 108.302311 
L 196.550658 109.967737 
L 196.878685 106.24486 
L 197.206711 107.466222 
L 197.534737 107.456367 
L 197.862763 105.347811 
L 198.19079 108.614503 
L 198.846842 98.887916 
L 199.502894 93.834909 
L 199.830921 89.103766 
L 200.158947 91.194672 
L 200.486973 91.521584 
L 200.814999 88.955046 
L 201.143025 88.848002 
L 201.471052 84.601089 
L 201.799078 88.011297 
L 202.127104 84.231889 
L 202.45513 82.738157 
L 202.783156 81.804472 
L 203.111183 81.312271 
L 203.439209 77.296054 
L 204.095261 73.925755 
L 204.423287 75.778476 
L 204.751314 76.321782 
L 205.07934 77.495862 
L 205.407366 79.732217 
L 205.735392 77.680785 
L 206.063419 82.12912 
L 206.391445 81.706087 
L 206.719471 84.029729 
L 207.047497 81.797117 
L 207.375523 81.223245 
L 207.70355 79.065373 
L 208.031576 84.128682 
L 208.359602 81.108397 
L 209.015654 73.472031 
L 209.343681 73.956077 
L 209.671707 77.008215 
L 209.999733 78.242605 
L 210.327759 76.181565 
L 210.655785 72.776169 
L 210.983812 73.21353 
L 211.311838 74.303013 
L 211.639864 73.771189 
L 211.96789 66.93075 
L 212.295916 67.277047 
L 212.623943 67.203046 
L 212.951969 67.49811 
L 213.279995 66.628344 
L 213.608021 68.46644 
L 213.936048 68.340645 
L 214.264074 65.193869 
L 214.5921 60.392341 
L 214.920126 61.16682 
L 215.248152 59.069087 
L 215.576179 59.782057 
L 215.904205 64.248804 
L 216.232231 62.405362 
L 216.560257 58.441189 
L 217.21631 62.990747 
L 217.872362 72.77828 
L 218.200388 72.506832 
L 218.528414 74.8342 
L 218.856441 79.34629 
L 219.184467 80.840477 
L 219.512493 84.420598 
L 219.840519 78.958795 
L 220.168545 79.845125 
L 220.824598 89.190758 
L 221.152624 89.965607 
L 221.48065 92.242355 
L 222.136703 88.966897 
L 223.120781 101.372908 
L 223.448808 99.848157 
L 223.776834 96.69281 
L 224.10486 96.439466 
L 224.432886 94.474642 
L 224.760912 91.012305 
L 225.088939 94.364299 
L 225.416965 91.359345 
L 225.744991 91.91279 
L 226.073017 91.71171 
L 226.401043 92.194731 
L 226.72907 87.948134 
L 227.057096 87.498369 
L 227.713148 89.652636 
L 228.041174 89.626594 
L 228.369201 86.43571 
L 228.697227 79.88726 
L 229.025253 81.512579 
L 229.353279 84.992852 
L 229.681305 82.564873 
L 230.337358 85.154661 
L 230.99341 83.144549 
L 231.321437 84.4034 
L 231.649463 86.844039 
L 231.977489 86.590175 
L 232.305515 79.023312 
L 232.633541 82.449145 
L 233.289594 87.669175 
L 233.61762 88.173906 
L 233.945646 86.985975 
L 234.273672 88.024786 
L 234.601699 91.046294 
L 234.929725 92.309387 
L 235.913803 78.912728 
L 236.24183 78.086842 
L 236.897882 85.766133 
L 237.225908 86.113435 
L 237.553934 83.747684 
L 237.881961 87.643164 
L 238.538013 88.575521 
L 238.866039 90.588113 
L 239.194066 88.221034 
L 239.522092 91.01717 
L 240.178144 94.242427 
L 240.50617 97.500512 
L 240.834197 98.336989 
L 241.162223 97.543409 
L 241.490249 98.94031 
L 241.818275 101.324044 
L 242.146301 97.881581 
L 242.474328 100.878031 
L 242.802354 102.042943 
L 243.13038 103.823962 
L 244.114459 101.757272 
L 244.442485 103.541091 
L 244.770511 106.415973 
L 245.098537 102.778395 
L 245.426563 104.607466 
L 246.410642 97.65453 
L 246.738668 98.069192 
L 247.066695 95.435962 
L 247.394721 99.368372 
L 247.722747 99.184192 
L 248.050773 100.659597 
L 248.378799 102.710869 
L 248.706826 102.491594 
L 249.034852 105.831727 
L 249.362878 105.533943 
L 249.690904 105.939266 
L 250.01893 105.15182 
L 250.346957 112.375976 
L 251.003009 119.616569 
L 251.331035 116.646486 
L 251.659061 116.08476 
L 251.987088 116.10332 
L 252.315114 116.90068 
L 252.64314 114.690719 
L 252.971166 114.747255 
L 253.299192 117.004735 
L 253.627219 113.101808 
L 254.283271 120.585062 
L 254.611297 119.169557 
L 254.939324 121.688362 
L 255.26735 119.975213 
L 255.595376 120.303073 
L 255.923402 121.525867 
L 256.251428 119.977189 
L 256.579455 125.17354 
L 256.907481 126.593612 
L 257.235507 130.794729 
L 257.563533 128.395564 
L 257.891559 129.415612 
L 258.219586 131.322867 
L 258.547612 134.416241 
L 258.875638 136.445621 
L 259.53169 139.033948 
L 259.859717 138.780388 
L 260.515769 144.304737 
L 260.843795 147.816052 
L 261.171821 148.918318 
L 261.499848 151.467052 
L 261.827874 150.630859 
L 262.1559 150.521648 
L 262.483926 149.901408 
L 262.811952 150.28719 
L 263.139979 150.256614 
L 263.468005 151.313485 
L 263.796031 151.983993 
L 264.124057 150.442665 
L 264.452084 154.50108 
L 264.78011 153.335698 
L 265.108136 156.131021 
L 265.436162 156.247275 
L 265.764188 152.98299 
L 266.420241 149.314739 
L 266.748267 145.900981 
L 267.076293 145.998296 
L 267.404319 146.422271 
L 267.732346 142.596498 
L 268.060372 141.656002 
L 268.388398 141.736803 
L 268.716424 140.580099 
L 269.04445 141.712546 
L 269.372477 141.823842 
L 269.700503 141.240907 
L 270.684581 150.279447 
L 271.340634 144.681673 
L 271.66866 146.191522 
L 271.996686 146.913185 
L 272.324713 145.758159 
L 272.652739 145.318599 
L 272.980765 144.071679 
L 273.308791 143.603964 
L 273.636817 148.492995 
L 273.964844 146.900378 
L 274.29287 146.212574 
L 274.620896 147.069081 
L 274.948922 144.967088 
L 275.276948 147.530234 
L 275.604975 144.936126 
L 275.933001 147.371111 
L 276.261027 148.172698 
L 276.589053 144.772233 
L 277.245106 142.487098 
L 277.573132 148.216438 
L 277.901158 145.725483 
L 278.229184 145.131248 
L 278.55721 136.699393 
L 278.885237 135.659623 
L 279.213263 138.123059 
L 279.541289 138.102956 
L 279.869315 137.118555 
L 280.197342 142.590442 
L 280.525368 141.144465 
L 280.853394 140.527234 
L 281.509446 140.605496 
L 281.837473 140.95751 
L 282.165499 143.275336 
L 282.493525 142.582036 
L 282.821551 137.086155 
L 283.149577 135.646264 
L 283.477604 131.485975 
L 283.80563 131.363413 
L 284.461682 126.152885 
L 284.789708 129.641748 
L 285.117735 126.438994 
L 285.445761 128.661446 
L 285.773787 130.070064 
L 286.101813 128.976025 
L 287.085892 120.709147 
L 287.741944 117.201834 
L 288.069971 121.179776 
L 288.397997 122.351504 
L 288.726023 122.031978 
L 289.710102 114.251552 
L 290.366154 115.003053 
L 290.69418 115.328111 
L 291.022206 117.354945 
L 291.350233 117.965192 
L 291.678259 115.072418 
L 292.006285 118.507691 
L 292.334311 120.204994 
L 292.990364 117.6212 
L 293.31839 119.518471 
L 293.646416 120.27926 
L 294.302468 117.558063 
L 294.630495 118.674275 
L 294.958521 115.164783 
L 295.286547 119.814899 
L 295.614573 118.244974 
L 295.9426 113.47524 
L 296.270626 114.3285 
L 296.926678 110.688708 
L 297.254704 111.232109 
L 297.910757 121.811719 
L 298.238783 124.972889 
L 298.566809 125.666044 
L 298.894835 124.855003 
L 299.222862 121.547108 
L 299.878914 130.405195 
L 300.20694 126.301812 
L 300.534966 124.757574 
L 300.862993 124.652865 
L 301.191019 123.739899 
L 301.519045 126.574411 
L 301.847071 123.628004 
L 302.175097 128.512894 
L 302.503124 124.747015 
L 302.83115 124.927903 
L 303.159176 117.800446 
L 303.487202 117.464381 
L 303.815229 116.282345 
L 304.143255 116.352788 
L 304.471281 116.247359 
L 304.799307 121.206264 
L 305.127333 117.062162 
L 305.45536 116.134664 
L 305.783386 112.275129 
L 306.439438 115.258865 
L 307.095491 106.781218 
L 307.423517 106.503258 
L 307.751543 105.087814 
L 308.079569 102.426844 
L 308.407595 103.565075 
L 308.735622 105.553242 
L 309.063648 104.452662 
L 309.391674 104.629683 
L 309.7197 101.334897 
L 310.375753 100.058249 
L 310.703779 97.128763 
L 311.031805 98.113874 
L 311.359831 100.515652 
L 312.015884 93.053208 
L 312.34391 93.448663 
L 312.671936 88.743756 
L 312.999962 86.257144 
L 313.327989 91.713715 
L 313.984041 97.534562 
L 314.312067 97.948455 
L 314.640093 99.155704 
L 314.96812 96.315326 
L 315.296146 96.521696 
L 315.624172 95.12029 
L 315.952198 98.148165 
L 316.280224 96.644642 
L 316.608251 92.485815 
L 316.936277 91.517446 
L 317.264303 87.737178 
L 317.592329 91.289455 
L 317.920355 93.505382 
L 318.248382 99.063095 
L 318.576408 97.433522 
L 318.904434 98.33091 
L 319.560486 100.697297 
L 319.888513 96.634047 
L 320.216539 94.328221 
L 320.872591 93.892023 
L 321.200618 96.793372 
L 321.528644 91.60607 
L 321.85667 90.653051 
L 322.184696 93.371624 
L 322.512722 91.776144 
L 322.840749 86.960849 
L 323.168775 86.687087 
L 323.496801 88.776917 
L 323.824827 89.286591 
L 324.152853 91.851694 
L 324.48088 95.689145 
L 324.808906 96.144033 
L 325.464958 100.999874 
L 325.792984 98.808796 
L 326.449037 103.229793 
L 326.777063 104.18275 
L 327.105089 104.256377 
L 327.433115 101.687095 
L 327.761142 102.741884 
L 328.089168 107.98169 
L 328.417194 105.508486 
L 328.74522 105.520528 
L 329.073247 103.439967 
L 329.729299 106.892567 
L 330.057325 109.131858 
L 330.385351 108.747454 
L 331.041404 103.333704 
L 331.36943 104.463703 
L 331.697456 104.658238 
L 332.025482 105.625463 
L 332.353509 101.812056 
L 332.681535 102.637673 
L 333.009561 101.748332 
L 333.337587 97.25944 
L 333.665613 96.926095 
L 333.99364 99.341625 
L 334.321666 97.81705 
L 334.649692 99.23025 
L 334.977718 94.718825 
L 335.305744 94.357035 
L 335.961797 98.396041 
L 336.289823 97.213297 
L 336.617849 94.71809 
L 337.273902 96.896039 
L 337.929954 90.967231 
L 338.25798 91.714588 
L 338.586007 94.593575 
L 338.914033 94.246005 
L 339.242059 97.115444 
L 339.570085 98.643431 
L 339.898111 99.442411 
L 340.226138 98.045157 
L 340.554164 99.733396 
L 340.88219 100.45815 
L 341.210216 95.312839 
L 341.538242 95.271002 
L 341.866269 91.976027 
L 342.522321 97.760543 
L 342.850347 95.919253 
L 343.178373 100.377246 
L 343.5064 97.214292 
L 343.834426 95.476168 
L 344.162452 96.085336 
L 344.490478 94.189596 
L 344.818505 94.921595 
L 345.474557 92.323571 
L 345.802583 90.346057 
L 346.130609 90.56095 
L 346.458636 86.518654 
L 346.786662 87.825373 
L 347.114688 86.9913 
L 347.442714 88.571901 
L 348.426793 96.083706 
L 348.754819 98.968523 
L 349.082845 94.830027 
L 349.410871 95.852467 
L 349.738898 102.67124 
L 350.066924 103.00972 
L 350.39495 103.629068 
L 350.722976 102.028985 
L 351.051002 105.553632 
L 351.379029 107.491486 
L 351.707055 107.19711 
L 352.035081 104.81691 
L 352.363107 104.641535 
L 352.691133 102.775054 
L 353.01916 106.424026 
L 353.347186 104.764058 
L 354.003238 111.050054 
L 354.331265 110.629378 
L 354.659291 107.233561 
L 354.987317 109.283746 
L 355.315343 102.852392 
L 355.643369 105.04979 
L 355.971396 104.230246 
L 356.299422 97.273766 
L 356.627448 95.484508 
L 356.955474 90.724206 
L 357.2835 87.69493 
L 358.267579 81.806402 
L 358.923631 83.808201 
L 359.251658 86.246896 
L 359.90771 92.664544 
L 360.235736 88.895652 
L 360.563762 90.630945 
L 360.891789 89.542429 
L 361.547841 91.550147 
L 361.875867 90.997987 
L 362.203894 90.005957 
L 362.53192 92.758356 
L 362.859946 92.671648 
L 363.187972 88.875039 
L 363.515998 86.684661 
L 363.844025 82.538803 
L 364.172051 81.079021 
L 364.500077 80.870834 
L 365.156129 70.891274 
L 365.484156 69.448684 
L 365.812182 76.949396 
L 366.140208 80.742389 
L 366.468234 82.737849 
L 366.79626 86.609335 
L 367.124287 85.236802 
L 367.780339 80.678158 
L 368.764418 85.916672 
L 369.42047 80.629587 
L 369.748496 85.603622 
L 370.076523 88.378237 
L 370.404549 84.915494 
L 370.732575 80.214335 
L 371.060601 78.763602 
L 371.388627 76.699111 
L 371.716654 75.777492 
L 372.04468 77.106152 
L 372.372706 74.086937 
L 372.700732 80.227514 
L 373.028758 78.228246 
L 373.356785 79.371798 
L 373.684811 79.136227 
L 374.012837 82.16488 
L 374.996916 78.441683 
L 375.324942 77.874161 
L 375.652968 80.716294 
L 375.980994 81.67455 
L 376.30902 83.166477 
L 376.637047 78.719283 
L 376.965073 82.023347 
L 377.293099 80.517875 
L 377.621125 81.344067 
L 377.949152 79.282025 
L 378.605204 90.189212 
L 378.93323 83.680268 
L 379.261256 81.31182 
L 380.245335 76.692769 
L 380.573361 73.816189 
L 380.901387 73.617874 
L 381.229414 75.491784 
L 381.55744 78.538229 
L 381.885466 79.035745 
L 382.213492 81.180721 
L 382.541518 81.620176 
L 382.869545 81.481695 
L 383.197571 84.101953 
L 383.525597 83.340118 
L 383.853623 84.462305 
L 384.181649 83.479321 
L 384.509676 81.624035 
L 385.165728 85.986114 
L 385.493754 83.068575 
L 385.821781 86.002278 
L 386.149807 83.171663 
L 386.477833 85.858781 
L 386.805859 82.32801 
L 387.133885 86.487334 
L 387.789938 90.816745 
L 388.117964 90.819165 
L 388.44599 94.681465 
L 388.774016 95.935184 
L 389.102043 95.353753 
L 389.758095 91.67239 
L 390.414147 95.396085 
L 390.742174 91.763151 
L 391.0702 95.489955 
L 391.398226 96.97843 
L 391.726252 94.023197 
L 392.054278 98.876758 
L 392.382305 95.874128 
L 392.710331 90.082009 
L 393.038357 88.38932 
L 393.366383 89.538642 
L 393.69441 90.066349 
L 394.022436 86.764135 
L 394.350462 86.239463 
L 394.678488 84.126076 
L 395.006514 88.68616 
L 395.662567 84.099477 
L 395.990593 80.468262 
L 396.318619 85.883139 
L 396.646645 87.442182 
L 396.974672 92.012632 
L 397.630724 96.784695 
L 397.95875 96.726621 
L 398.286776 99.826143 
L 399.270855 91.503096 
L 399.598881 94.96143 
L 399.926907 100.03663 
L 400.254934 101.568961 
L 400.58296 103.711436 
L 400.910986 103.680935 
L 401.239012 96.039277 
L 401.567038 97.474191 
L 401.895065 101.445316 
L 402.223091 102.371629 
L 402.223091 102.371629 
" style="fill:none;stroke:#ff0000;stroke-linecap:square;stroke-width:1.5;"/>
   </g>
   <g id="patch_3">
    <path d="M 58.14 301.176 
L 58.14 40.608 
" style="fill:none;stroke:#000000;stroke-linecap:square;stroke-linejoin:miter;stroke-width:0.8;"/>
   </g>
   <g id="patch_4">
    <path d="M 418.608 301.176 
L 418.608 40.608 
" style="fill:none;stroke:#000000;stroke-linecap:square;stroke-linejoin:miter;stroke-width:0.8;"/>
   </g>
   <g id="patch_5">
    <path d="M 58.14 301.176 
L 418.608 301.176 
" style="fill:none;stroke:#000000;stroke-linecap:square;stroke-linejoin:miter;stroke-width:0.8;"/>
   </g>
   <g id="patch_6">
    <path d="M 58.14 40.608 
L 418.608 40.608 
" style="fill:none;stroke:#000000;stroke-linecap:square;stroke-linejoin:miter;stroke-width:0.8;"/>
   </g>
   <g id="text_12">
    <!-- Hello -->
    <defs>
     <path d="M 6.6875 72.90625 
L 16.609375 72.90625 
L 16.609375 43.015625 
L 43.609375 43.015625 
L 43.609375 72.90625 
L 53.515625 72.90625 
L 53.515625 0 
L 43.609375 0 
L 43.609375 34.71875 
L 16.609375 34.71875 
L 16.609375 0 
L 6.6875 0 
z
" id="DejaVuSansMono-72"/>
     <path d="M 54.296875 29.59375 
L 54.296875 25.203125 
L 15.375 25.203125 
L 15.375 24.90625 
Q 15.375 15.96875 20.03125 11.078125 
Q 24.703125 6.203125 33.203125 6.203125 
Q 37.5 6.203125 42.1875 7.5625 
Q 46.875 8.9375 52.203125 11.71875 
L 52.203125 2.78125 
Q 47.078125 0.6875 42.3125 -0.359375 
Q 37.546875 -1.421875 33.109375 -1.421875 
Q 20.359375 -1.421875 13.171875 6.21875 
Q 6 13.875 6 27.296875 
Q 6 40.375 13.03125 48.1875 
Q 20.0625 56 31.78125 56 
Q 42.234375 56 48.265625 48.921875 
Q 54.296875 41.84375 54.296875 29.59375 
z
M 45.3125 32.234375 
Q 45.125 40.140625 41.578125 44.265625 
Q 38.03125 48.390625 31.390625 48.390625 
Q 24.90625 48.390625 20.703125 44.09375 
Q 16.5 39.796875 15.71875 32.171875 
z
" id="DejaVuSansMono-101"/>
     <path d="M 31.203125 19.828125 
Q 31.203125 13.765625 33.421875 10.6875 
Q 35.640625 7.625 39.984375 7.625 
L 50.484375 7.625 
L 50.484375 0 
L 39.109375 0 
Q 31.0625 0 26.640625 5.171875 
Q 22.21875 10.359375 22.21875 19.828125 
L 22.21875 69.484375 
L 7.8125 69.484375 
L 7.8125 76.515625 
L 31.203125 76.515625 
z
" id="DejaVuSansMono-108"/>
     <path d="M 30.078125 48.390625 
Q 23.25 48.390625 19.734375 43.0625 
Q 16.21875 37.75 16.21875 27.296875 
Q 16.21875 16.890625 19.734375 11.546875 
Q 23.25 6.203125 30.078125 6.203125 
Q 36.96875 6.203125 40.484375 11.546875 
Q 44 16.890625 44 27.296875 
Q 44 37.75 40.484375 43.0625 
Q 36.96875 48.390625 30.078125 48.390625 
z
M 30.078125 56 
Q 41.453125 56 47.484375 48.625 
Q 53.515625 41.265625 53.515625 27.296875 
Q 53.515625 13.28125 47.5 5.921875 
Q 41.5 -1.421875 30.078125 -1.421875 
Q 18.703125 -1.421875 12.6875 5.921875 
Q 6.6875 13.28125 6.6875 27.296875 
Q 6.6875 41.265625 12.6875 48.625 
Q 18.703125 56 30.078125 56 
z
" id="DejaVuSansMono-111"/>
    </defs>
    <g transform="translate(90.926219 -38.696666)scale(0.1 -0.1)">
     <use xlink:href="#DejaVuSansMono-72"/>
     <use x="60.205078" xlink:href="#DejaVuSansMono-101"/>
     <use x="120.410156" xlink:href="#DejaVuSansMono-108"/>
     <use x="180.615234" xlink:href="#DejaVuSansMono-108"/>
     <use x="240.820312" xlink:href="#DejaVuSansMono-111"/>
    </g>
   </g>
   <g id="text_13">
    <!-- Hello -->
    <g transform="translate(205.735392 -998.578973)scale(0.1 -0.1)">
     <use xlink:href="#DejaVuSansMono-72"/>
     <use x="60.205078" xlink:href="#DejaVuSansMono-101"/>
     <use x="120.410156" xlink:href="#DejaVuSansMono-108"/>
     <use x="180.615234" xlink:href="#DejaVuSansMono-108"/>
     <use x="240.820312" xlink:href="#DejaVuSansMono-111"/>
    </g>
   </g>
   <g id="text_14">
    <!-- Hello -->
    <g transform="translate(90.926219 -38.696666)scale(1 -1)">
     <use xlink:href="#DejaVuSansMono-72"/>
     <use x="60.205078" xlink:href="#DejaVuSansMono-101"/>
     <use x="120.410156" xlink:href="#DejaVuSansMono-108"/>
     <use x="180.615234" xlink:href="#DejaVuSansMono-108"/>
     <use x="240.820312" xlink:href="#DejaVuSansMono-111"/>
    </g>
   </g>
   <g id="text_15">
    <!-- Hello -->
    <g transform="translate(90.926219 -38.696666)scale(10 -10)">
     <use xlink:href="#DejaVuSansMono-72"/>
     <use x="60.205078" xlink:href="#DejaVuSansMono-101"/>
     <use x="120.410156" xlink:href="#DejaVuSansMono-108"/>
     <use x="180.615234" xlink:href="#DejaVuSansMono-108"/>
     <use x="240.820312" xlink:href="#DejaVuSansMono-111"/>
    </g>
   </g>
   <g id="text_16">
    <!-- Hello -->
    <g transform="translate(222.136703 216.357775)scale(10 -10)">
     <use xlink:href="#DejaVuSansMono-72"/>
     <use x="60.205078" xlink:href="#DejaVuSansMono-101"/>
     <use x="120.410156" xlink:href="#DejaVuSansMono-108"/>
     <use x="180.615234" xlink:href="#DejaVuSansMono-108"/>
     <use x="240.820312" xlink:href="#DejaVuSansMono-111"/>
    </g>
   </g>
   <g id="text_17">
    <!-- Hello -->
    <g transform="translate(222.136703 216.357775)scale(1 -1)">
     <use xlink:href="#DejaVuSansMono-72"/>
     <use x="60.205078" xlink:href="#DejaVuSansMono-101"/>
     <use x="120.410156" xlink:href="#DejaVuSansMono-108"/>
     <use x="180.615234" xlink:href="#DejaVuSansMono-108"/>
     <use x="240.820312" xlink:href="#DejaVuSansMono-111"/>
    </g>
   </g>
   <g id="text_18">
    <!-- Hello -->
    <g transform="translate(222.136703 216.357775)scale(0.1 -0.1)">
     <use xlink:href="#DejaVuSansMono-72"/>
     <use x="60.205078" xlink:href="#DejaVuSansMono-101"/>
     <use x="120.410156" xlink:href="#DejaVuSansMono-108"/>
     <use x="180.615234" xlink:href="#DejaVuSansMono-108"/>
     <use x="240.820312" xlink:href="#DejaVuSansMono-111"/>
    </g>
   </g>
   <g id="legend_1">
    <g id="patch_7">
     <path d="M 65.14 296.176 
L 123.811875 296.176 
Q 125.811875 296.176 125.811875 294.176 
L 125.811875 251.141625 
Q 125.811875 249.141625 123.811875 249.141625 
L 65.14 249.141625 
Q 63.14 249.141625 63.14 251.141625 
L 63.14 294.176 
Q 63.14 296.176 65.14 296.176 
z
" style="fill:#ffffff;opacity:0.8;stroke:#cccccc;stroke-linejoin:miter;"/>
    </g>
    <g id="line2d_15">
     <path d="M 67.14 257.240063 
L 87.14 257.240063 
" style="fill:none;stroke:#000000;stroke-linecap:square;stroke-width:1.5;"/>
    </g>
    <g id="line2d_16"/>
    <g id="text_19">
     <!-- three -->
     <defs>
      <path d="M 18.3125 70.21875 
L 18.3125 54.6875 
L 36.8125 54.6875 
L 36.8125 47.703125 
L 18.3125 47.703125 
L 18.3125 18.015625 
Q 18.3125 11.328125 20.140625 9.421875 
Q 21.96875 7.515625 27.59375 7.515625 
L 36.8125 7.515625 
L 36.8125 0 
L 27.59375 0 
Q 17.1875 0 13.234375 3.875 
Q 9.28125 7.765625 9.28125 18.015625 
L 9.28125 47.703125 
L 2.6875 47.703125 
L 2.6875 54.6875 
L 9.28125 54.6875 
L 9.28125 70.21875 
z
" id="DejaVuSans-116"/>
      <path d="M 54.890625 33.015625 
L 54.890625 0 
L 45.90625 0 
L 45.90625 32.71875 
Q 45.90625 40.484375 42.875 44.328125 
Q 39.84375 48.1875 33.796875 48.1875 
Q 26.515625 48.1875 22.3125 43.546875 
Q 18.109375 38.921875 18.109375 30.90625 
L 18.109375 0 
L 9.078125 0 
L 9.078125 75.984375 
L 18.109375 75.984375 
L 18.109375 46.1875 
Q 21.34375 51.125 25.703125 53.5625 
Q 30.078125 56 35.796875 56 
Q 45.21875 56 50.046875 50.171875 
Q 54.890625 44.34375 54.890625 33.015625 
z
" id="DejaVuSans-104"/>
      <path d="M 41.109375 46.296875 
Q 39.59375 47.171875 37.8125 47.578125 
Q 36.03125 48 33.890625 48 
Q 26.265625 48 22.1875 43.046875 
Q 18.109375 38.09375 18.109375 28.8125 
L 18.109375 0 
L 9.078125 0 
L 9.078125 54.6875 
L 18.109375 54.6875 
L 18.109375 46.1875 
Q 20.953125 51.171875 25.484375 53.578125 
Q 30.03125 56 36.53125 56 
Q 37.453125 56 38.578125 55.875 
Q 39.703125 55.765625 41.0625 55.515625 
z
" id="DejaVuSans-114"/>
      <path d="M 56.203125 29.59375 
L 56.203125 25.203125 
L 14.890625 25.203125 
Q 15.484375 15.921875 20.484375 11.0625 
Q 25.484375 6.203125 34.421875 6.203125 
Q 39.59375 6.203125 44.453125 7.46875 
Q 49.3125 8.734375 54.109375 11.28125 
L 54.109375 2.78125 
Q 49.265625 0.734375 44.1875 -0.34375 
Q 39.109375 -1.421875 33.890625 -1.421875 
Q 20.796875 -1.421875 13.15625 6.1875 
Q 5.515625 13.8125 5.515625 26.8125 
Q 5.515625 40.234375 12.765625 48.109375 
Q 20.015625 56 32.328125 56 
Q 43.359375 56 49.78125 48.890625 
Q 56.203125 41.796875 56.203125 29.59375 
z
M 47.21875 32.234375 
Q 47.125 39.59375 43.09375 43.984375 
Q 39.0625 48.390625 32.421875 48.390625 
Q 24.90625 48.390625 20.390625 44.140625 
Q 15.875 39.890625 15.1875 32.171875 
z
" id="DejaVuSans-101"/>
     </defs>
     <g transform="translate(95.14 260.740063)scale(0.1 -0.1)">
      <use xlink:href="#DejaVuSans-116"/>
      <use x="39.208984" xlink:href="#DejaVuSans-104"/>
      <use x="102.587891" xlink:href="#DejaVuSans-114"/>
      <use x="143.669922" xlink:href="#DejaVuSans-101"/>
      <use x="205.193359" xlink:href="#DejaVuSans-101"/>
     </g>
    </g>
    <g id="line2d_17">
     <path d="M 67.14 271.918188 
L 87.14 271.918188 
" style="fill:none;stroke:#0000ff;stroke-linecap:square;stroke-width:1.5;"/>
    </g>
    <g id="line2d_18"/>
    <g id="text_20">
     <!-- two -->
     <defs>
      <path d="M 4.203125 54.6875 
L 13.1875 54.6875 
L 24.421875 12.015625 
L 35.59375 54.6875 
L 46.1875 54.6875 
L 57.421875 12.015625 
L 68.609375 54.6875 
L 77.59375 54.6875 
L 63.28125 0 
L 52.6875 0 
L 40.921875 44.828125 
L 29.109375 0 
L 18.5 0 
z
" id="DejaVuSans-119"/>
      <path d="M 30.609375 48.390625 
Q 23.390625 48.390625 19.1875 42.75 
Q 14.984375 37.109375 14.984375 27.296875 
Q 14.984375 17.484375 19.15625 11.84375 
Q 23.34375 6.203125 30.609375 6.203125 
Q 37.796875 6.203125 41.984375 11.859375 
Q 46.1875 17.53125 46.1875 27.296875 
Q 46.1875 37.015625 41.984375 42.703125 
Q 37.796875 48.390625 30.609375 48.390625 
z
M 30.609375 56 
Q 42.328125 56 49.015625 48.375 
Q 55.71875 40.765625 55.71875 27.296875 
Q 55.71875 13.875 49.015625 6.21875 
Q 42.328125 -1.421875 30.609375 -1.421875 
Q 18.84375 -1.421875 12.171875 6.21875 
Q 5.515625 13.875 5.515625 27.296875 
Q 5.515625 40.765625 12.171875 48.375 
Q 18.84375 56 30.609375 56 
z
" id="DejaVuSans-111"/>
     </defs>
     <g transform="translate(95.14 275.418188)scale(0.1 -0.1)">
      <use xlink:href="#DejaVuSans-116"/>
      <use x="39.208984" xlink:href="#DejaVuSans-119"/>
      <use x="120.996094" xlink:href="#DejaVuSans-111"/>
     </g>
    </g>
    <g id="line2d_19">
     <path d="M 67.14 286.596313 
L 87.14 286.596313 
" style="fill:none;stroke:#ff0000;stroke-linecap:square;stroke-width:1.5;"/>
    </g>
    <g id="line2d_20"/>
    <g id="text_21">
     <!-- one -->
     <defs>
      <path d="M 54.890625 33.015625 
L 54.890625 0 
L 45.90625 0 
L 45.90625 32.71875 
Q 45.90625 40.484375 42.875 44.328125 
Q 39.84375 48.1875 33.796875 48.1875 
Q 26.515625 48.1875 22.3125 43.546875 
Q 18.109375 38.921875 18.109375 30.90625 
L 18.109375 0 
L 9.078125 0 
L 9.078125 54.6875 
L 18.109375 54.6875 
L 18.109375 46.1875 
Q 21.34375 51.125 25.703125 53.5625 
Q 30.078125 56 35.796875 56 
Q 45.21875 56 50.046875 50.171875 
Q 54.890625 44.34375 54.890625 33.015625 
z
" id="DejaVuSans-110"/>
     </defs>
     <g transform="translate(95.14 290.096313)scale(0.1 -0.1)">
      <use xlink:href="#DejaVuSans-111"/>
      <use x="61.181641" xlink:href="#DejaVuSans-110"/>
      <use x="124.560547" xlink:href="#DejaVuSans-101"/>
     </g>
    </g>
   </g>
  </g>
 </g>
 <defs>
  <clipPath id="p4d055c6b72">
   <rect height="260.568" width="360.468" x="58.14" y="40.608"/>
  </clipPath>
 </defs>
</svg>
